<?xml version="1.0" encoding="UTF-8" standalone="no"?>
<!-- Created with Inkscape (http://www.inkscape.org/) -->

<svg
   xmlns:dc="http://purl.org/dc/elements/1.1/"
   xmlns:cc="http://creativecommons.org/ns#"
   xmlns:rdf="http://www.w3.org/1999/02/22-rdf-syntax-ns#"
   xmlns:svg="http://www.w3.org/2000/svg"
   xmlns="http://www.w3.org/2000/svg"
   xmlns:xlink="http://www.w3.org/1999/xlink"
   xmlns:sodipodi="http://sodipodi.sourceforge.net/DTD/sodipodi-0.dtd"
   xmlns:inkscape="http://www.inkscape.org/namespaces/inkscape"
   width="403.93701"
   height="109.84251"
   id="svg2"
   version="1.1"
   inkscape:version="0.48.2 r9819"
   sodipodi:docname="äraklikilinki110x31.svg">
  <defs
     id="defs4">
    <rect
       height="9"
       width="9"
       id="p" />
  </defs>
  <sodipodi:namedview
     id="base"
     pagecolor="#ffffff"
     bordercolor="#666666"
     borderopacity="1.0"
     inkscape:pageopacity="0.0"
     inkscape:pageshadow="2"
     inkscape:zoom="0.7"
     inkscape:cx="46.817723"
     inkscape:cy="46.854619"
     inkscape:document-units="px"
     inkscape:current-layer="layer1"
     showgrid="false"
     units="cm"
     inkscape:window-width="1024"
     inkscape:window-height="740"
     inkscape:window-x="0"
     inkscape:window-y="0"
     inkscape:window-maximized="1" />
  <metadata
     id="metadata7">
    <rdf:RDF>
      <cc:Work
         rdf:about="">
        <dc:format>image/svg+xml</dc:format>
        <dc:type
           rdf:resource="http://purl.org/dc/dcmitype/StillImage" />
        <dc:title></dc:title>
      </cc:Work>
    </rdf:RDF>
  </metadata>
  <g
     inkscape:label="Layer 1"
     inkscape:groupmode="layer"
     id="layer1"
     transform="translate(0,-942.51948)">
    <text
       xml:space="preserve"
       style="font-size:40px;font-style:normal;font-variant:normal;font-weight:normal;font-stretch:normal;line-height:125%;letter-spacing:0px;word-spacing:0px;fill:#000000;fill-opacity:1;stroke:none;font-family:Ubuntu;-inkscape-font-specification:Ubuntu"
       x="405.07117"
       y="57.361923"
       id="text2996"
       sodipodi:linespacing="125%"><tspan
         sodipodi:role="line"
         id="tspan2998"
         x="405.07117"
         y="57.361923" /></text>
    <text
       xml:space="preserve"
       style="font-size:14.27999973px;font-style:normal;font-variant:normal;font-weight:bold;font-stretch:normal;line-height:125%;letter-spacing:0px;word-spacing:0px;fill:#000000;fill-opacity:1;stroke:none;font-family:Tlwg Typist;-inkscape-font-specification:Tlwg Typist Bold"
       x="123.64301"
       y="960.88666"
       id="text3000"
       sodipodi:linespacing="125%"><tspan
         sodipodi:role="line"
         x="123.64301"
         y="960.88666"
         style="font-size:14.27999973px;font-style:normal;font-variant:normal;font-weight:bold;font-stretch:normal;font-family:Tlwg Typist;-inkscape-font-specification:Tlwg Typist Bold"
         id="tspan3012">ÄRA KLIKI SEDA LINKI,</tspan></text>
    <text
       xml:space="preserve"
       style="font-size:72px;font-style:normal;font-variant:normal;font-weight:bold;font-stretch:normal;line-height:125%;letter-spacing:0px;word-spacing:0px;fill:#000000;fill-opacity:1;stroke:none;font-family:Tlwg Typist;-inkscape-font-specification:Tlwg Typist Bold"
       x="124.86305"
       y="1015.3453"
       id="text3008"
       sodipodi:linespacing="125%"><tspan
         sodipodi:role="line"
         id="tspan3010"
         x="124.86305"
         y="1015.3453"
         style="font-size:72px;font-style:normal;font-variant:normal;font-weight:bold;font-stretch:normal;font-family:Tlwg Typist;-inkscape-font-specification:Tlwg Typist Bold">ACTA</tspan></text>
    <text
       xml:space="preserve"
       style="font-size:27.44000053px;font-style:normal;font-variant:normal;font-weight:500;font-stretch:normal;line-height:125%;letter-spacing:0px;word-spacing:0px;fill:#000000;fill-opacity:1;stroke:none;font-family:Tlwg Typist;-inkscape-font-specification:Tlwg Typist Medium"
       x="122.16536"
       y="1045.4305"
       id="text3016"
       sodipodi:linespacing="125%"><tspan
         sodipodi:role="line"
         id="tspan3018"
         x="122.16536"
         y="1045.4305"
         style="font-size:27.44000053px;font-weight:bold;-inkscape-font-specification:Tlwg Typist Bold">JÄLGIB SIND</tspan></text>
    <path
       inkscape:connector-curvature="0"
       style="fill:#231f20;fill-opacity:1;fill-rule:nonzero;stroke:none"
       d="m 382.91741,946.79921 -66.85738,25.01192 10.33407,-0.36829 0.0216,0.065 6.20695,-0.27079 0.3683,-0.0108 1.83067,4.89622 12.90136,5.88203 12.32724,-4.61464 c 0.59968,1.41471 1.95415,2.30687 3.4122,2.37228 l 3.3472,8.96914 c -0.90126,1.0417 -1.22059,2.5296 -0.7041,3.9105 0.75264,2.0125 3.00315,3.0384 5.01538,2.2857 0.75738,-0.2829 1.37398,-0.7734 1.80901,-1.3865 l 22.46634,0 0,1.8522 c 0,0.9347 0.7561,1.70086 1.68985,1.70086 0.24134,0 0.47489,-0.062 0.68242,-0.15186 l 0,1.66826 c 0,0.9342 0.75567,1.68976 1.68986,1.68976 0.93463,0 1.68984,-0.75556 1.68984,-1.68976 l 0,-13.19386 c 0,-0.9346 -0.75521,-1.68979 -1.68984,-1.68979 -0.93419,0 -1.68986,0.75519 -1.68986,1.68979 l 0,1.6682 c -0.20753,-0.091 -0.44108,-0.1409 -0.68242,-0.1409 -0.93375,0 -1.68985,0.7558 -1.68985,1.6899 l 0,1.8524 -21.83806,0 c -0.0407,-0.1916 -0.0918,-0.3743 -0.16248,-0.5633 -0.60835,-1.6256 -2.18902,-2.6045 -3.83467,-2.5239 l -3.24972,-8.70923 c 1.05723,-1.0057 1.49444,-2.55775 1.01825,-4.01882 l 12.65221,-4.73371 7.76682,-10.20409 -4.83125,-12.93384 z m -44.96518,24.49196 c 0.39524,0.0166 0.76294,0.26692 0.90992,0.6608 0.19685,0.5247 -0.0714,1.1036 -0.59576,1.2999 -0.52539,0.19669 -1.1037,-0.0603 -1.2999,-0.58497 -0.19632,-0.52473 0.0708,-1.11443 0.59578,-1.31073 0.1313,-0.049 0.25824,-0.0707 0.38996,-0.065 z m -5.65449,0.97491 -5.50283,0.23832 0.82326,2.20981 -1.90651,0.71493 3.08723,8.23266 1.89567,-0.70407 1.7765,4.74443 13.90877,-5.19947 -12.35974,-5.62202 -1.72235,-4.61459 z m -8.17842,2.30734 -2.82726,1.06156 4.02963,10.77818 2.82726,-1.0615 -4.02963,-10.77824 z"
       id="path3159" />
    <text
       xml:space="preserve"
       style="font-size:40px;font-style:normal;font-variant:normal;font-weight:500;font-stretch:normal;line-height:125%;letter-spacing:0px;word-spacing:0px;fill:#000000;fill-opacity:1;stroke:none;font-family:Tlwg Typist;-inkscape-font-specification:Tlwg Typist Medium"
       x="321.22852"
       y="81.558235"
       id="text3236"
       sodipodi:linespacing="125%"
       transform="translate(0,942.51948)"><tspan
         sodipodi:role="line"
         id="tspan3238"></tspan></text>
    <text
       xml:space="preserve"
       style="font-size:12px;font-style:normal;font-variant:normal;font-weight:500;font-stretch:normal;line-height:125%;letter-spacing:0px;word-spacing:0px;fill:#000000;fill-opacity:1;stroke:none;font-family:Tlwg Typist;-inkscape-font-specification:Tlwg Typist Medium"
       x="319.20819"
       y="82.56839"
       id="text12699"
       sodipodi:linespacing="125%"
       transform="translate(0,942.51948)"><tspan
         sodipodi:role="line"
         id="tspan12701"
         x="319.20819"
         y="82.56839" /></text>
    <text
       xml:space="preserve"
       style="font-size:16px;font-style:normal;font-variant:normal;font-weight:300;font-stretch:normal;text-align:end;line-height:125%;letter-spacing:0px;word-spacing:0px;text-anchor:end;fill:#000000;fill-opacity:1;stroke:none;font-family:LMMonoLtCond10;-inkscape-font-specification:LMMonoLtCond10 Light"
       x="398.34482"
       y="1023.1082"
       id="text12703"
       sodipodi:linespacing="125%"><tspan
         sodipodi:role="line"
         id="tspan12705"
         x="398.34482"
         y="1023.1082">Täpsemalt vt</tspan><tspan
         sodipodi:role="line"
         x="398.34482"
         y="1043.1082"
         id="tspan12707">http://acta.ee</tspan></text>
    <flowRoot
       xml:space="preserve"
       id="flowRoot12709"
       style="fill:black;stroke:none;stroke-opacity:1;stroke-width:1px;stroke-linejoin:miter;stroke-linecap:butt;fill-opacity:1;font-family:Tlwg Typist;font-style:normal;font-weight:500;font-size:40px;line-height:125%;letter-spacing:0px;word-spacing:0px;-inkscape-font-specification:Tlwg Typist Medium;font-stretch:normal;font-variant:normal"><flowRegion
         id="flowRegion12711"><rect
           id="rect12713"
           width="206.07112"
           height="214.15234"
           x="111.11678"
           y="-38.649918" /></flowRegion><flowPara
         id="flowPara12715"></flowPara></flowRoot>    <g
       id="g13543"
       transform="matrix(0.51565667,0,0,0.51565667,-8.00748,930.42593)"
       style="fill:#000000">
      <use
         x="36"
         y="36"
         xlink:href="#p"
         id="use13545"
         width="1"
         height="1" />
      <use
         x="36"
         y="45"
         xlink:href="#p"
         id="use13547"
         width="1"
         height="1" />
      <use
         x="36"
         y="54"
         xlink:href="#p"
         id="use13549"
         width="1"
         height="1" />
      <use
         x="36"
         y="63"
         xlink:href="#p"
         id="use13551"
         width="1"
         height="1" />
      <use
         x="36"
         y="72"
         xlink:href="#p"
         id="use13553"
         width="1"
         height="1" />
      <use
         x="36"
         y="81"
         xlink:href="#p"
         id="use13555"
         width="1"
         height="1" />
      <use
         x="36"
         y="90"
         xlink:href="#p"
         id="use13557"
         width="1"
         height="1" />
      <use
         x="36"
         y="108"
         xlink:href="#p"
         id="use13559"
         width="1"
         height="1" />
      <use
         x="36"
         y="126"
         xlink:href="#p"
         id="use13561"
         width="1"
         height="1" />
      <use
         x="36"
         y="162"
         xlink:href="#p"
         id="use13563"
         width="1"
         height="1" />
      <use
         x="36"
         y="171"
         xlink:href="#p"
         id="use13565"
         width="1"
         height="1" />
      <use
         x="36"
         y="180"
         xlink:href="#p"
         id="use13567"
         width="1"
         height="1" />
      <use
         x="36"
         y="189"
         xlink:href="#p"
         id="use13569"
         width="1"
         height="1" />
      <use
         x="36"
         y="198"
         xlink:href="#p"
         id="use13571"
         width="1"
         height="1" />
      <use
         x="36"
         y="207"
         xlink:href="#p"
         id="use13573"
         width="1"
         height="1" />
      <use
         x="36"
         y="216"
         xlink:href="#p"
         id="use13575"
         width="1"
         height="1" />
      <use
         x="45"
         y="36"
         xlink:href="#p"
         id="use13577"
         width="1"
         height="1" />
      <use
         x="45"
         y="90"
         xlink:href="#p"
         id="use13579"
         width="1"
         height="1" />
      <use
         x="45"
         y="126"
         xlink:href="#p"
         id="use13581"
         width="1"
         height="1" />
      <use
         x="45"
         y="144"
         xlink:href="#p"
         id="use13583"
         width="1"
         height="1" />
      <use
         x="45"
         y="162"
         xlink:href="#p"
         id="use13585"
         width="1"
         height="1" />
      <use
         x="45"
         y="216"
         xlink:href="#p"
         id="use13587"
         width="1"
         height="1" />
      <use
         x="54"
         y="36"
         xlink:href="#p"
         id="use13589"
         width="1"
         height="1" />
      <use
         x="54"
         y="54"
         xlink:href="#p"
         id="use13591"
         width="1"
         height="1" />
      <use
         x="54"
         y="63"
         xlink:href="#p"
         id="use13593"
         width="1"
         height="1" />
      <use
         x="54"
         y="72"
         xlink:href="#p"
         id="use13595"
         width="1"
         height="1" />
      <use
         x="54"
         y="90"
         xlink:href="#p"
         id="use13597"
         width="1"
         height="1" />
      <use
         x="54"
         y="117"
         xlink:href="#p"
         id="use13599"
         width="1"
         height="1" />
      <use
         x="54"
         y="126"
         xlink:href="#p"
         id="use13601"
         width="1"
         height="1" />
      <use
         x="54"
         y="162"
         xlink:href="#p"
         id="use13603"
         width="1"
         height="1" />
      <use
         x="54"
         y="180"
         xlink:href="#p"
         id="use13605"
         width="1"
         height="1" />
      <use
         x="54"
         y="189"
         xlink:href="#p"
         id="use13607"
         width="1"
         height="1" />
      <use
         x="54"
         y="198"
         xlink:href="#p"
         id="use13609"
         width="1"
         height="1" />
      <use
         x="54"
         y="216"
         xlink:href="#p"
         id="use13611"
         width="1"
         height="1" />
      <use
         x="63"
         y="36"
         xlink:href="#p"
         id="use13613"
         width="1"
         height="1" />
      <use
         x="63"
         y="54"
         xlink:href="#p"
         id="use13615"
         width="1"
         height="1" />
      <use
         x="63"
         y="63"
         xlink:href="#p"
         id="use13617"
         width="1"
         height="1" />
      <use
         x="63"
         y="72"
         xlink:href="#p"
         id="use13619"
         width="1"
         height="1" />
      <use
         x="63"
         y="90"
         xlink:href="#p"
         id="use13621"
         width="1"
         height="1" />
      <use
         x="63"
         y="108"
         xlink:href="#p"
         id="use13623"
         width="1"
         height="1" />
      <use
         x="63"
         y="117"
         xlink:href="#p"
         id="use13625"
         width="1"
         height="1" />
      <use
         x="63"
         y="126"
         xlink:href="#p"
         id="use13627"
         width="1"
         height="1" />
      <use
         x="63"
         y="144"
         xlink:href="#p"
         id="use13629"
         width="1"
         height="1" />
      <use
         x="63"
         y="162"
         xlink:href="#p"
         id="use13631"
         width="1"
         height="1" />
      <use
         x="63"
         y="180"
         xlink:href="#p"
         id="use13633"
         width="1"
         height="1" />
      <use
         x="63"
         y="189"
         xlink:href="#p"
         id="use13635"
         width="1"
         height="1" />
      <use
         x="63"
         y="198"
         xlink:href="#p"
         id="use13637"
         width="1"
         height="1" />
      <use
         x="63"
         y="216"
         xlink:href="#p"
         id="use13639"
         width="1"
         height="1" />
      <use
         x="72"
         y="36"
         xlink:href="#p"
         id="use13641"
         width="1"
         height="1" />
      <use
         x="72"
         y="54"
         xlink:href="#p"
         id="use13643"
         width="1"
         height="1" />
      <use
         x="72"
         y="63"
         xlink:href="#p"
         id="use13645"
         width="1"
         height="1" />
      <use
         x="72"
         y="72"
         xlink:href="#p"
         id="use13647"
         width="1"
         height="1" />
      <use
         x="72"
         y="90"
         xlink:href="#p"
         id="use13649"
         width="1"
         height="1" />
      <use
         x="72"
         y="126"
         xlink:href="#p"
         id="use13651"
         width="1"
         height="1" />
      <use
         x="72"
         y="135"
         xlink:href="#p"
         id="use13653"
         width="1"
         height="1" />
      <use
         x="72"
         y="162"
         xlink:href="#p"
         id="use13655"
         width="1"
         height="1" />
      <use
         x="72"
         y="180"
         xlink:href="#p"
         id="use13657"
         width="1"
         height="1" />
      <use
         x="72"
         y="189"
         xlink:href="#p"
         id="use13659"
         width="1"
         height="1" />
      <use
         x="72"
         y="198"
         xlink:href="#p"
         id="use13661"
         width="1"
         height="1" />
      <use
         x="72"
         y="216"
         xlink:href="#p"
         id="use13663"
         width="1"
         height="1" />
      <use
         x="81"
         y="36"
         xlink:href="#p"
         id="use13665"
         width="1"
         height="1" />
      <use
         x="81"
         y="90"
         xlink:href="#p"
         id="use13667"
         width="1"
         height="1" />
      <use
         x="81"
         y="108"
         xlink:href="#p"
         id="use13669"
         width="1"
         height="1" />
      <use
         x="81"
         y="117"
         xlink:href="#p"
         id="use13671"
         width="1"
         height="1" />
      <use
         x="81"
         y="135"
         xlink:href="#p"
         id="use13673"
         width="1"
         height="1" />
      <use
         x="81"
         y="162"
         xlink:href="#p"
         id="use13675"
         width="1"
         height="1" />
      <use
         x="81"
         y="216"
         xlink:href="#p"
         id="use13677"
         width="1"
         height="1" />
      <use
         x="90"
         y="36"
         xlink:href="#p"
         id="use13679"
         width="1"
         height="1" />
      <use
         x="90"
         y="45"
         xlink:href="#p"
         id="use13681"
         width="1"
         height="1" />
      <use
         x="90"
         y="54"
         xlink:href="#p"
         id="use13683"
         width="1"
         height="1" />
      <use
         x="90"
         y="63"
         xlink:href="#p"
         id="use13685"
         width="1"
         height="1" />
      <use
         x="90"
         y="72"
         xlink:href="#p"
         id="use13687"
         width="1"
         height="1" />
      <use
         x="90"
         y="81"
         xlink:href="#p"
         id="use13689"
         width="1"
         height="1" />
      <use
         x="90"
         y="90"
         xlink:href="#p"
         id="use13691"
         width="1"
         height="1" />
      <use
         x="90"
         y="108"
         xlink:href="#p"
         id="use13693"
         width="1"
         height="1" />
      <use
         x="90"
         y="126"
         xlink:href="#p"
         id="use13695"
         width="1"
         height="1" />
      <use
         x="90"
         y="144"
         xlink:href="#p"
         id="use13697"
         width="1"
         height="1" />
      <use
         x="90"
         y="162"
         xlink:href="#p"
         id="use13699"
         width="1"
         height="1" />
      <use
         x="90"
         y="171"
         xlink:href="#p"
         id="use13701"
         width="1"
         height="1" />
      <use
         x="90"
         y="180"
         xlink:href="#p"
         id="use13703"
         width="1"
         height="1" />
      <use
         x="90"
         y="189"
         xlink:href="#p"
         id="use13705"
         width="1"
         height="1" />
      <use
         x="90"
         y="198"
         xlink:href="#p"
         id="use13707"
         width="1"
         height="1" />
      <use
         x="90"
         y="207"
         xlink:href="#p"
         id="use13709"
         width="1"
         height="1" />
      <use
         x="90"
         y="216"
         xlink:href="#p"
         id="use13711"
         width="1"
         height="1" />
      <use
         x="99"
         y="144"
         xlink:href="#p"
         id="use13713"
         width="1"
         height="1" />
      <use
         x="108"
         y="81"
         xlink:href="#p"
         id="use13715"
         width="1"
         height="1" />
      <use
         x="108"
         y="90"
         xlink:href="#p"
         id="use13717"
         width="1"
         height="1" />
      <use
         x="108"
         y="108"
         xlink:href="#p"
         id="use13719"
         width="1"
         height="1" />
      <use
         x="108"
         y="126"
         xlink:href="#p"
         id="use13721"
         width="1"
         height="1" />
      <use
         x="108"
         y="135"
         xlink:href="#p"
         id="use13723"
         width="1"
         height="1" />
      <use
         x="108"
         y="153"
         xlink:href="#p"
         id="use13725"
         width="1"
         height="1" />
      <use
         x="108"
         y="171"
         xlink:href="#p"
         id="use13727"
         width="1"
         height="1" />
      <use
         x="108"
         y="189"
         xlink:href="#p"
         id="use13729"
         width="1"
         height="1" />
      <use
         x="108"
         y="216"
         xlink:href="#p"
         id="use13731"
         width="1"
         height="1" />
      <use
         x="117"
         y="36"
         xlink:href="#p"
         id="use13733"
         width="1"
         height="1" />
      <use
         x="117"
         y="45"
         xlink:href="#p"
         id="use13735"
         width="1"
         height="1" />
      <use
         x="117"
         y="54"
         xlink:href="#p"
         id="use13737"
         width="1"
         height="1" />
      <use
         x="117"
         y="63"
         xlink:href="#p"
         id="use13739"
         width="1"
         height="1" />
      <use
         x="117"
         y="72"
         xlink:href="#p"
         id="use13741"
         width="1"
         height="1" />
      <use
         x="117"
         y="99"
         xlink:href="#p"
         id="use13743"
         width="1"
         height="1" />
      <use
         x="117"
         y="108"
         xlink:href="#p"
         id="use13745"
         width="1"
         height="1" />
      <use
         x="117"
         y="117"
         xlink:href="#p"
         id="use13747"
         width="1"
         height="1" />
      <use
         x="117"
         y="135"
         xlink:href="#p"
         id="use13749"
         width="1"
         height="1" />
      <use
         x="117"
         y="144"
         xlink:href="#p"
         id="use13751"
         width="1"
         height="1" />
      <use
         x="117"
         y="162"
         xlink:href="#p"
         id="use13753"
         width="1"
         height="1" />
      <use
         x="117"
         y="171"
         xlink:href="#p"
         id="use13755"
         width="1"
         height="1" />
      <use
         x="117"
         y="189"
         xlink:href="#p"
         id="use13757"
         width="1"
         height="1" />
      <use
         x="117"
         y="198"
         xlink:href="#p"
         id="use13759"
         width="1"
         height="1" />
      <use
         x="117"
         y="207"
         xlink:href="#p"
         id="use13761"
         width="1"
         height="1" />
      <use
         x="117"
         y="216"
         xlink:href="#p"
         id="use13763"
         width="1"
         height="1" />
      <use
         x="126"
         y="36"
         xlink:href="#p"
         id="use13765"
         width="1"
         height="1" />
      <use
         x="126"
         y="72"
         xlink:href="#p"
         id="use13767"
         width="1"
         height="1" />
      <use
         x="126"
         y="81"
         xlink:href="#p"
         id="use13769"
         width="1"
         height="1" />
      <use
         x="126"
         y="90"
         xlink:href="#p"
         id="use13771"
         width="1"
         height="1" />
      <use
         x="126"
         y="99"
         xlink:href="#p"
         id="use13773"
         width="1"
         height="1" />
      <use
         x="126"
         y="117"
         xlink:href="#p"
         id="use13775"
         width="1"
         height="1" />
      <use
         x="126"
         y="153"
         xlink:href="#p"
         id="use13777"
         width="1"
         height="1" />
      <use
         x="126"
         y="162"
         xlink:href="#p"
         id="use13779"
         width="1"
         height="1" />
      <use
         x="126"
         y="180"
         xlink:href="#p"
         id="use13781"
         width="1"
         height="1" />
      <use
         x="126"
         y="189"
         xlink:href="#p"
         id="use13783"
         width="1"
         height="1" />
      <use
         x="126"
         y="198"
         xlink:href="#p"
         id="use13785"
         width="1"
         height="1" />
      <use
         x="135"
         y="117"
         xlink:href="#p"
         id="use13787"
         width="1"
         height="1" />
      <use
         x="135"
         y="126"
         xlink:href="#p"
         id="use13789"
         width="1"
         height="1" />
      <use
         x="135"
         y="135"
         xlink:href="#p"
         id="use13791"
         width="1"
         height="1" />
      <use
         x="135"
         y="144"
         xlink:href="#p"
         id="use13793"
         width="1"
         height="1" />
      <use
         x="135"
         y="153"
         xlink:href="#p"
         id="use13795"
         width="1"
         height="1" />
      <use
         x="135"
         y="171"
         xlink:href="#p"
         id="use13797"
         width="1"
         height="1" />
      <use
         x="135"
         y="180"
         xlink:href="#p"
         id="use13799"
         width="1"
         height="1" />
      <use
         x="135"
         y="216"
         xlink:href="#p"
         id="use13801"
         width="1"
         height="1" />
      <use
         x="144"
         y="45"
         xlink:href="#p"
         id="use13803"
         width="1"
         height="1" />
      <use
         x="144"
         y="72"
         xlink:href="#p"
         id="use13805"
         width="1"
         height="1" />
      <use
         x="144"
         y="90"
         xlink:href="#p"
         id="use13807"
         width="1"
         height="1" />
      <use
         x="144"
         y="108"
         xlink:href="#p"
         id="use13809"
         width="1"
         height="1" />
      <use
         x="144"
         y="117"
         xlink:href="#p"
         id="use13811"
         width="1"
         height="1" />
      <use
         x="144"
         y="126"
         xlink:href="#p"
         id="use13813"
         width="1"
         height="1" />
      <use
         x="144"
         y="144"
         xlink:href="#p"
         id="use13815"
         width="1"
         height="1" />
      <use
         x="144"
         y="153"
         xlink:href="#p"
         id="use13817"
         width="1"
         height="1" />
      <use
         x="144"
         y="162"
         xlink:href="#p"
         id="use13819"
         width="1"
         height="1" />
      <use
         x="144"
         y="171"
         xlink:href="#p"
         id="use13821"
         width="1"
         height="1" />
      <use
         x="144"
         y="189"
         xlink:href="#p"
         id="use13823"
         width="1"
         height="1" />
      <use
         x="144"
         y="198"
         xlink:href="#p"
         id="use13825"
         width="1"
         height="1" />
      <use
         x="144"
         y="216"
         xlink:href="#p"
         id="use13827"
         width="1"
         height="1" />
      <use
         x="153"
         y="108"
         xlink:href="#p"
         id="use13829"
         width="1"
         height="1" />
      <use
         x="153"
         y="117"
         xlink:href="#p"
         id="use13831"
         width="1"
         height="1" />
      <use
         x="153"
         y="162"
         xlink:href="#p"
         id="use13833"
         width="1"
         height="1" />
      <use
         x="153"
         y="207"
         xlink:href="#p"
         id="use13835"
         width="1"
         height="1" />
      <use
         x="162"
         y="36"
         xlink:href="#p"
         id="use13837"
         width="1"
         height="1" />
      <use
         x="162"
         y="45"
         xlink:href="#p"
         id="use13839"
         width="1"
         height="1" />
      <use
         x="162"
         y="54"
         xlink:href="#p"
         id="use13841"
         width="1"
         height="1" />
      <use
         x="162"
         y="63"
         xlink:href="#p"
         id="use13843"
         width="1"
         height="1" />
      <use
         x="162"
         y="72"
         xlink:href="#p"
         id="use13845"
         width="1"
         height="1" />
      <use
         x="162"
         y="81"
         xlink:href="#p"
         id="use13847"
         width="1"
         height="1" />
      <use
         x="162"
         y="90"
         xlink:href="#p"
         id="use13849"
         width="1"
         height="1" />
      <use
         x="162"
         y="126"
         xlink:href="#p"
         id="use13851"
         width="1"
         height="1" />
      <use
         x="162"
         y="135"
         xlink:href="#p"
         id="use13853"
         width="1"
         height="1" />
      <use
         x="162"
         y="162"
         xlink:href="#p"
         id="use13855"
         width="1"
         height="1" />
      <use
         x="162"
         y="189"
         xlink:href="#p"
         id="use13857"
         width="1"
         height="1" />
      <use
         x="162"
         y="198"
         xlink:href="#p"
         id="use13859"
         width="1"
         height="1" />
      <use
         x="162"
         y="216"
         xlink:href="#p"
         id="use13861"
         width="1"
         height="1" />
      <use
         x="171"
         y="36"
         xlink:href="#p"
         id="use13863"
         width="1"
         height="1" />
      <use
         x="171"
         y="90"
         xlink:href="#p"
         id="use13865"
         width="1"
         height="1" />
      <use
         x="171"
         y="108"
         xlink:href="#p"
         id="use13867"
         width="1"
         height="1" />
      <use
         x="171"
         y="117"
         xlink:href="#p"
         id="use13869"
         width="1"
         height="1" />
      <use
         x="171"
         y="126"
         xlink:href="#p"
         id="use13871"
         width="1"
         height="1" />
      <use
         x="171"
         y="144"
         xlink:href="#p"
         id="use13873"
         width="1"
         height="1" />
      <use
         x="171"
         y="153"
         xlink:href="#p"
         id="use13875"
         width="1"
         height="1" />
      <use
         x="171"
         y="180"
         xlink:href="#p"
         id="use13877"
         width="1"
         height="1" />
      <use
         x="171"
         y="189"
         xlink:href="#p"
         id="use13879"
         width="1"
         height="1" />
      <use
         x="171"
         y="207"
         xlink:href="#p"
         id="use13881"
         width="1"
         height="1" />
      <use
         x="180"
         y="36"
         xlink:href="#p"
         id="use13883"
         width="1"
         height="1" />
      <use
         x="180"
         y="54"
         xlink:href="#p"
         id="use13885"
         width="1"
         height="1" />
      <use
         x="180"
         y="63"
         xlink:href="#p"
         id="use13887"
         width="1"
         height="1" />
      <use
         x="180"
         y="72"
         xlink:href="#p"
         id="use13889"
         width="1"
         height="1" />
      <use
         x="180"
         y="90"
         xlink:href="#p"
         id="use13891"
         width="1"
         height="1" />
      <use
         x="180"
         y="117"
         xlink:href="#p"
         id="use13893"
         width="1"
         height="1" />
      <use
         x="180"
         y="135"
         xlink:href="#p"
         id="use13895"
         width="1"
         height="1" />
      <use
         x="180"
         y="162"
         xlink:href="#p"
         id="use13897"
         width="1"
         height="1" />
      <use
         x="180"
         y="171"
         xlink:href="#p"
         id="use13899"
         width="1"
         height="1" />
      <use
         x="180"
         y="180"
         xlink:href="#p"
         id="use13901"
         width="1"
         height="1" />
      <use
         x="180"
         y="189"
         xlink:href="#p"
         id="use13903"
         width="1"
         height="1" />
      <use
         x="180"
         y="198"
         xlink:href="#p"
         id="use13905"
         width="1"
         height="1" />
      <use
         x="189"
         y="36"
         xlink:href="#p"
         id="use13907"
         width="1"
         height="1" />
      <use
         x="189"
         y="54"
         xlink:href="#p"
         id="use13909"
         width="1"
         height="1" />
      <use
         x="189"
         y="63"
         xlink:href="#p"
         id="use13911"
         width="1"
         height="1" />
      <use
         x="189"
         y="72"
         xlink:href="#p"
         id="use13913"
         width="1"
         height="1" />
      <use
         x="189"
         y="90"
         xlink:href="#p"
         id="use13915"
         width="1"
         height="1" />
      <use
         x="189"
         y="135"
         xlink:href="#p"
         id="use13917"
         width="1"
         height="1" />
      <use
         x="189"
         y="144"
         xlink:href="#p"
         id="use13919"
         width="1"
         height="1" />
      <use
         x="189"
         y="162"
         xlink:href="#p"
         id="use13921"
         width="1"
         height="1" />
      <use
         x="189"
         y="180"
         xlink:href="#p"
         id="use13923"
         width="1"
         height="1" />
      <use
         x="189"
         y="207"
         xlink:href="#p"
         id="use13925"
         width="1"
         height="1" />
      <use
         x="198"
         y="36"
         xlink:href="#p"
         id="use13927"
         width="1"
         height="1" />
      <use
         x="198"
         y="54"
         xlink:href="#p"
         id="use13929"
         width="1"
         height="1" />
      <use
         x="198"
         y="63"
         xlink:href="#p"
         id="use13931"
         width="1"
         height="1" />
      <use
         x="198"
         y="72"
         xlink:href="#p"
         id="use13933"
         width="1"
         height="1" />
      <use
         x="198"
         y="90"
         xlink:href="#p"
         id="use13935"
         width="1"
         height="1" />
      <use
         x="198"
         y="126"
         xlink:href="#p"
         id="use13937"
         width="1"
         height="1" />
      <use
         x="198"
         y="162"
         xlink:href="#p"
         id="use13939"
         width="1"
         height="1" />
      <use
         x="198"
         y="198"
         xlink:href="#p"
         id="use13941"
         width="1"
         height="1" />
      <use
         x="207"
         y="36"
         xlink:href="#p"
         id="use13943"
         width="1"
         height="1" />
      <use
         x="207"
         y="90"
         xlink:href="#p"
         id="use13945"
         width="1"
         height="1" />
      <use
         x="207"
         y="135"
         xlink:href="#p"
         id="use13947"
         width="1"
         height="1" />
      <use
         x="207"
         y="162"
         xlink:href="#p"
         id="use13949"
         width="1"
         height="1" />
      <use
         x="207"
         y="171"
         xlink:href="#p"
         id="use13951"
         width="1"
         height="1" />
      <use
         x="207"
         y="189"
         xlink:href="#p"
         id="use13953"
         width="1"
         height="1" />
      <use
         x="207"
         y="216"
         xlink:href="#p"
         id="use13955"
         width="1"
         height="1" />
      <use
         x="216"
         y="36"
         xlink:href="#p"
         id="use13957"
         width="1"
         height="1" />
      <use
         x="216"
         y="45"
         xlink:href="#p"
         id="use13959"
         width="1"
         height="1" />
      <use
         x="216"
         y="54"
         xlink:href="#p"
         id="use13961"
         width="1"
         height="1" />
      <use
         x="216"
         y="63"
         xlink:href="#p"
         id="use13963"
         width="1"
         height="1" />
      <use
         x="216"
         y="72"
         xlink:href="#p"
         id="use13965"
         width="1"
         height="1" />
      <use
         x="216"
         y="81"
         xlink:href="#p"
         id="use13967"
         width="1"
         height="1" />
      <use
         x="216"
         y="90"
         xlink:href="#p"
         id="use13969"
         width="1"
         height="1" />
      <use
         x="216"
         y="117"
         xlink:href="#p"
         id="use13971"
         width="1"
         height="1" />
      <use
         x="216"
         y="126"
         xlink:href="#p"
         id="use13973"
         width="1"
         height="1" />
      <use
         x="216"
         y="135"
         xlink:href="#p"
         id="use13975"
         width="1"
         height="1" />
      <use
         x="216"
         y="153"
         xlink:href="#p"
         id="use13977"
         width="1"
         height="1" />
      <use
         x="216"
         y="171"
         xlink:href="#p"
         id="use13979"
         width="1"
         height="1" />
      <use
         x="216"
         y="189"
         xlink:href="#p"
         id="use13981"
         width="1"
         height="1" />
      <use
         x="216"
         y="198"
         xlink:href="#p"
         id="use13983"
         width="1"
         height="1" />
    </g>
  </g>
</svg>
