<?xml version="1.0" encoding="UTF-8" standalone="no"?>
<!-- Created with Inkscape (http://www.inkscape.org/) -->

<svg
   xmlns:dc="http://purl.org/dc/elements/1.1/"
   xmlns:cc="http://creativecommons.org/ns#"
   xmlns:rdf="http://www.w3.org/1999/02/22-rdf-syntax-ns#"
   xmlns:svg="http://www.w3.org/2000/svg"
   xmlns="http://www.w3.org/2000/svg"
   xmlns:sodipodi="http://sodipodi.sourceforge.net/DTD/sodipodi-0.dtd"
   xmlns:inkscape="http://www.inkscape.org/namespaces/inkscape"
   width="201.80864"
   height="86.76001"
   id="svg3083"
   version="1.1"
   inkscape:version="0.48.3.1 r9886"
   inkscape:export-filename="/home/mp/Pildid/ref/t6eline-ref.png"
   inkscape:export-xdpi="342.75"
   inkscape:export-ydpi="342.75"
   sodipodi:docname="reformipiraadid.svg">
  <defs
     id="defs3085" />
  <sodipodi:namedview
     id="base"
     pagecolor="#ffffff"
     bordercolor="#666666"
     borderopacity="1.0"
     inkscape:pageopacity="0.0"
     inkscape:pageshadow="2"
     inkscape:zoom="1.4"
     inkscape:cx="78.416686"
     inkscape:cy="71.951447"
     inkscape:document-units="px"
     inkscape:current-layer="layer1"
     showgrid="false"
     fit-margin-top="10"
     fit-margin-left="10"
     fit-margin-right="8"
     fit-margin-bottom="10"
     inkscape:window-width="1280"
     inkscape:window-height="1000"
     inkscape:window-x="0"
     inkscape:window-y="24"
     inkscape:window-maximized="1" />
  <metadata
     id="metadata3088">
    <rdf:RDF>
      <cc:Work
         rdf:about="">
        <dc:format>image/svg+xml</dc:format>
        <dc:type
           rdf:resource="http://purl.org/dc/dcmitype/StillImage" />
        <dc:title></dc:title>
      </cc:Work>
    </rdf:RDF>
  </metadata>
  <g
     inkscape:label="Layer 1"
     inkscape:groupmode="layer"
     id="layer1"
     transform="translate(-43.809965,-317.55361)">
    <g
       style="font-size:19px;font-style:italic;font-variant:normal;font-weight:bold;font-stretch:normal;line-height:125%;letter-spacing:0px;word-spacing:0px;fill:#005da8;fill-opacity:1;stroke:none;font-family:Barmeno;-inkscape-font-specification:Barmeno Bold Italic"
       id="text2998"
       transform="translate(94.240124,429.43462)">
      <path
         d="m 0.09723216,-57.977052 c 0.11399423,0.01267 0.20899413,0.02534 0.285,0.038 0.075994,7e-6 0.16466056,7e-6 0.266,0 0.75999304,7e-6 1.34899244,-0.196326 1.76700004,-0.589 0.4306582,-0.392658 0.7219913,-0.962658 0.874,-1.71 0.050658,-0.278657 0.075991,-0.55099 0.076,-0.817 -9e-6,-0.278656 -0.063342,-0.525656 -0.19,-0.741 -0.1140087,-0.215322 -0.2976751,-0.392655 -0.551,-0.532 -0.2406747,-0.139322 -0.5890076,-0.208988 -1.045,-0.209 -0.2153403,1.2e-5 -0.4116734,0.01901 -0.58900004,0.057 l -0.893,4.503 m -2.20399996,-5.529 c 0.037997,-0.21532 0.094996,-0.36732 0.171,-0.456 0.088663,-0.08865 0.2279961,-0.15832 0.418,-0.209 0.1519958,-0.03799 0.3609956,-0.07599 0.62699996,-0.114 0.26599506,-0.03799 0.5573281,-0.06965 0.874,-0.095 0.3166608,-0.02532 0.63332715,-0.04432 0.95,-0.057 0.32932654,-0.01265 0.63332624,-0.01899 0.91200004,-0.019 0.3039922,1.4e-5 0.6523252,0.01268 1.045,0.038 0.3926578,0.02535 0.7853241,0.08235 1.178,0.171 0.3926566,0.08868 0.7726562,0.22168 1.14,0.399 0.3799888,0.177346 0.6903218,0.424346 0.931,0.741 0.2533213,0.304012 0.4306545,0.690345 0.532,1.159 0.101321,0.456011 0.088654,1.013344 -0.038,1.672 -0.2786786,1.368008 -0.9373446,2.419341 -1.976,3.154 -1.0386759,0.734672 -2.3306746,1.102005 -3.87600004,1.102 -0.13933954,5e-6 -0.29133939,5e-6 -0.456,0 -0.16467239,-0.01266 -0.36733885,-0.02533 -0.608,-0.038 l -0.94999996,4.75 c -0.038004,0.177334 -0.1013376,0.297667 -0.19,0.361 -0.076004,0.05067 -0.2026706,0.076 -0.38,0.076 l -2.318,0 c -0.1773346,0 -0.3040012,-0.02533 -0.38,-0.076 -0.063334,-0.05067 -0.076001,-0.183666 -0.038,-0.399 l 2.432,-12.16"
         id="path3088"
         inkscape:connector-curvature="0" />
      <path
         d="m 11.078638,-63.088052 c -0.101339,0.456012 -0.323006,0.791678 -0.665,1.007 -0.329338,0.215345 -0.6840046,0.323011 -1.0639996,0.323 -0.4433375,1.1e-5 -0.7980038,-0.107655 -1.064,-0.323 -0.2533366,-0.227988 -0.3420032,-0.557321 -0.266,-0.988 0.075997,-0.367321 0.2659965,-0.683987 0.57,-0.95 0.3166625,-0.265986 0.7409954,-0.398986 1.273,-0.399 0.5193276,1.4e-5 0.8613276,0.133014 1.0259996,0.399 0.177327,0.266013 0.240661,0.576346 0.19,0.931 m -2.2989996,11.742 c -0.038004,0.202667 -0.1013372,0.335667 -0.19,0.399 -0.08867,0.05067 -0.2153369,0.076 -0.38,0.076 l -2.242,0 c -0.1773344,0 -0.2786676,-0.038 -0.304,-0.114 -0.012668,-0.08867 -0.00633,-0.202666 0.019,-0.342 l 1.786,-8.968 c 0.025331,-0.139324 0.069664,-0.240657 0.133,-0.304 0.06333,-0.07599 0.1836636,-0.11399 0.361,-0.114 l 2.2419996,0 c 0.177328,10e-6 0.291328,0.03168 0.342,0.095 0.05066,0.05068 0.057,0.164676 0.019,0.342 l -1.7859996,8.93"
         id="path3090"
         inkscape:connector-curvature="0" />
      <path
         d="m 13.491638,-51.289052 c -0.02534,0.177334 -0.076,0.291334 -0.152,0.342 -0.076,0.05067 -0.190003,0.076 -0.342,0.076 l -2.185,0 c -0.177334,0 -0.291334,-0.02533 -0.342,-0.076 -0.038,-0.06333 -0.038,-0.183666 0,-0.361 l 1.577,-7.885 c 0.06333,-0.316658 0.145664,-0.544658 0.247,-0.684 0.101331,-0.151991 0.272331,-0.28499 0.513,-0.399 0.29133,-0.139324 0.61433,-0.253323 0.969,-0.342 0.367329,-0.101323 0.728329,-0.177323 1.083,-0.228 0.354661,-0.05066 0.690328,-0.08232 1.007,-0.095 0.31666,-0.02532 0.588993,-0.03799 0.817,-0.038 0.12666,1e-5 0.329326,0.01268 0.608,0.038 0.278659,0.01268 0.544659,0.07601 0.798,0.19 0.253325,0.101343 0.462325,0.272343 0.627,0.513 0.177324,0.240676 0.221658,0.576342 0.133,1.007 -0.06334,0.342008 -0.221675,0.633341 -0.475,0.874 -0.240675,0.240674 -0.538341,0.361007 -0.893,0.361 -0.329341,7e-6 -0.544674,-0.08866 -0.646,-0.266 -0.10134,-0.189992 -0.17734,-0.405325 -0.228,-0.646 -0.05067,-0.164658 -0.12034,-0.303991 -0.209,-0.418 -0.07601,-0.113991 -0.228006,-0.170991 -0.456,-0.171 -0.190006,9e-6 -0.348339,0.03167 -0.475,0.095 -0.114005,0.05067 -0.209005,0.126675 -0.285,0.228 -0.06334,0.08868 -0.114005,0.190008 -0.152,0.304 -0.03801,0.114008 -0.06334,0.228008 -0.076,0.342 l -1.463,7.239"
         id="path3092"
         inkscape:connector-curvature="0" />
      <path
         d="m 23.399842,-55.678052 c -0.29134,0.07601 -0.570006,0.164672 -0.836,0.266 -0.266006,0.08867 -0.513005,0.209005 -0.741,0.361 -0.215338,0.139338 -0.405338,0.323004 -0.57,0.551 -0.164671,0.228004 -0.285004,0.513003 -0.361,0.855 -0.101338,0.519336 -0.04434,0.893002 0.171,1.121 0.215329,0.215335 0.462328,0.323002 0.741,0.323 0.215328,2e-6 0.392661,-0.038 0.532,-0.114 0.139327,-0.08866 0.246994,-0.189998 0.323,-0.304 0.07599,-0.126665 0.132994,-0.253331 0.171,-0.38 0.05066,-0.139331 0.08233,-0.265997 0.095,-0.38 l 0.475,-2.299 m 2.261,2.774 c -0.03801,0.215335 -0.09501,0.437002 -0.171,0.665 -0.07601,0.215335 -0.202675,0.411668 -0.38,0.589 -0.101342,0.114001 -0.253342,0.234334 -0.456,0.361 -0.190008,0.114001 -0.443341,0.221667 -0.76,0.323 -0.304007,0.101334 -0.665007,0.183667 -1.083,0.247 -0.405339,0.076 -0.861339,0.114 -1.368,0.114 -0.139338,0 -0.335671,-0.0063 -0.589,-0.019 -0.240671,0 -0.50667,-0.03167 -0.798,-0.095 -0.291337,-0.05067 -0.58267,-0.126666 -0.874,-0.228 -0.291336,-0.114 -0.544669,-0.272333 -0.76,-0.475 -0.215335,-0.215332 -0.373668,-0.481332 -0.475,-0.798 -0.101335,-0.316665 -0.107668,-0.702998 -0.019,-1.159 0.126665,-0.620663 0.373665,-1.133663 0.741,-1.539 0.379998,-0.405329 0.829664,-0.734662 1.349,-0.988 0.519329,-0.265994 1.089329,-0.474994 1.71,-0.627 0.633328,-0.164661 1.272994,-0.31666 1.919,-0.456 l 0.209,-0.988 c 0.02533,-0.151993 0.04433,-0.310326 0.057,-0.475 0.02533,-0.164659 0.02533,-0.316659 0,-0.456 -0.02534,-0.139325 -0.08867,-0.253325 -0.19,-0.342 -0.10134,-0.08866 -0.266007,-0.132991 -0.494,-0.133 -0.17734,9e-6 -0.335673,0.03167 -0.475,0.095 -0.126673,0.06334 -0.240673,0.139342 -0.342,0.228 -0.08867,0.08868 -0.171006,0.183675 -0.247,0.285 -0.06334,0.101341 -0.120339,0.190008 -0.171,0.266 -0.152005,0.266008 -0.335672,0.513007 -0.551,0.741 -0.202671,0.228007 -0.519338,0.342007 -0.95,0.342 -0.418004,7e-6 -0.71567,-0.120326 -0.893,-0.361 -0.16467,-0.253326 -0.215336,-0.538326 -0.152,-0.855 0.05066,-0.265992 0.183664,-0.538325 0.399,-0.817 0.21533,-0.278658 0.512996,-0.525657 0.893,-0.741 0.392662,-0.22799 0.861328,-0.411657 1.406,-0.551 0.544661,-0.15199 1.177993,-0.22799 1.9,-0.228 0.341992,1e-5 0.709325,0.03168 1.102,0.095 0.392658,0.05068 0.728324,0.17101 1.007,0.361 0.215324,0.164676 0.373657,0.348343 0.475,0.551 0.101323,0.202676 0.164656,0.411676 0.19,0.627 0.02532,0.215342 0.01899,0.424342 -0.019,0.627 -0.02534,0.202675 -0.05068,0.386341 -0.076,0.551 l -1.064,5.263"
         id="path3094"
         inkscape:connector-curvature="0" />
      <path
         d="m 32.491638,-55.678052 c -0.291339,0.07601 -0.570005,0.164672 -0.836,0.266 -0.266005,0.08867 -0.513005,0.209005 -0.741,0.361 -0.215337,0.139338 -0.405337,0.323004 -0.57,0.551 -0.16467,0.228004 -0.285004,0.513003 -0.361,0.855 -0.101337,0.519336 -0.04434,0.893002 0.171,1.121 0.21533,0.215335 0.462329,0.323002 0.741,0.323 0.215329,2e-6 0.392662,-0.038 0.532,-0.114 0.139328,-0.08866 0.246995,-0.189998 0.323,-0.304 0.076,-0.126665 0.132995,-0.253331 0.171,-0.38 0.05066,-0.139331 0.08233,-0.265997 0.095,-0.38 l 0.475,-2.299 m 2.261,2.774 c -0.03801,0.215335 -0.09501,0.437002 -0.171,0.665 -0.07601,0.215335 -0.202675,0.411668 -0.38,0.589 -0.101341,0.114001 -0.253341,0.234334 -0.456,0.361 -0.190007,0.114001 -0.44334,0.221667 -0.76,0.323 -0.304006,0.101334 -0.665006,0.183667 -1.083,0.247 -0.405338,0.076 -0.861338,0.114 -1.368,0.114 -0.139337,0 -0.33567,-0.0063 -0.589,-0.019 -0.24067,0 -0.50667,-0.03167 -0.798,-0.095 -0.291336,-0.05067 -0.582669,-0.126666 -0.874,-0.228 -0.291335,-0.114 -0.544668,-0.272333 -0.76,-0.475 -0.215334,-0.215332 -0.373667,-0.481332 -0.475,-0.798 -0.101334,-0.316665 -0.107667,-0.702998 -0.019,-1.159 0.126666,-0.620663 0.373666,-1.133663 0.741,-1.539 0.379998,-0.405329 0.829665,-0.734662 1.349,-0.988 0.51933,-0.265994 1.08933,-0.474994 1.71,-0.627 0.633328,-0.164661 1.272994,-0.31666 1.919,-0.456 l 0.209,-0.988 c 0.02533,-0.151993 0.04433,-0.310326 0.057,-0.475 0.02533,-0.164659 0.02533,-0.316659 0,-0.456 -0.02534,-0.139325 -0.08867,-0.253325 -0.19,-0.342 -0.10134,-0.08866 -0.266006,-0.132991 -0.494,-0.133 -0.177339,9e-6 -0.335672,0.03167 -0.475,0.095 -0.126672,0.06334 -0.240672,0.139342 -0.342,0.228 -0.08867,0.08868 -0.171005,0.183675 -0.247,0.285 -0.06334,0.101341 -0.120338,0.190008 -0.171,0.266 -0.152004,0.266008 -0.335671,0.513007 -0.551,0.741 -0.20267,0.228007 -0.519337,0.342007 -0.95,0.342 -0.418003,7e-6 -0.715669,-0.120326 -0.893,-0.361 -0.164669,-0.253326 -0.215335,-0.538326 -0.152,-0.855 0.05066,-0.265992 0.183664,-0.538325 0.399,-0.817 0.215331,-0.278658 0.512997,-0.525657 0.893,-0.741 0.392663,-0.22799 0.861329,-0.411657 1.406,-0.551 0.544661,-0.15199 1.177994,-0.22799 1.9,-0.228 0.341993,1e-5 0.709326,0.03168 1.102,0.095 0.392659,0.05068 0.728325,0.17101 1.007,0.361 0.215324,0.164676 0.373658,0.348343 0.475,0.551 0.101324,0.202676 0.164657,0.411676 0.19,0.627 0.02532,0.215342 0.01899,0.424342 -0.019,0.627 -0.02534,0.202675 -0.05068,0.386341 -0.076,0.551 l -1.064,5.263"
         id="path3096"
         inkscape:connector-curvature="0" />
      <path
         d="m 42.951435,-59.155052 c -0.08867,-0.06332 -0.190007,-0.120325 -0.304,-0.171 -0.10134,-0.05066 -0.240674,-0.07599 -0.418,-0.076 -0.316673,9e-6 -0.614339,0.09501 -0.893,0.285 -0.266006,0.190008 -0.506672,0.449675 -0.722,0.779 -0.215338,0.316674 -0.405338,0.684007 -0.57,1.102 -0.152004,0.418006 -0.272338,0.848672 -0.361,1.292 -0.08867,0.443338 -0.139337,0.874004 -0.152,1.292 -0.01267,0.418004 0.02533,0.785337 0.114,1.102 0.08866,0.316669 0.227996,0.570002 0.418,0.76 0.189995,0.190002 0.436995,0.285002 0.741,0.285 0.202661,2e-6 0.367328,-0.038 0.494,-0.114 0.126661,-0.076 0.221661,-0.170998 0.285,-0.285 0.07599,-0.113998 0.132994,-0.234331 0.171,-0.361 0.03799,-0.139331 0.06966,-0.259664 0.095,-0.361 l 1.102,-5.529 m 1.748,6.327 c -0.07601,0.291335 -0.164676,0.557335 -0.266,0.798 -0.101342,0.228001 -0.323009,0.443334 -0.665,0.646 -0.152008,0.08867 -0.354675,0.183667 -0.608,0.285 -0.240674,0.08867 -0.513007,0.171 -0.817,0.247 -0.304007,0.076 -0.639673,0.133 -1.007,0.171 -0.354672,0.05067 -0.715672,0.076 -1.083,0.076 -0.823337,0 -1.507337,-0.120333 -2.052,-0.361 -0.532002,-0.240666 -0.943668,-0.576332 -1.235,-1.007 -0.291335,-0.443332 -0.468668,-0.968998 -0.532,-1.577 -0.05067,-0.607997 -0.0063,-1.272996 0.133,-1.995 0.151999,-0.721994 0.379999,-1.405994 0.684,-2.052 0.316665,-0.658659 0.702998,-1.241325 1.159,-1.748 0.455997,-0.506657 0.975329,-0.905657 1.558,-1.197 0.582662,-0.30399 1.203328,-0.45599 1.862,-0.456 0.405327,1e-5 0.709326,0.04434 0.912,0.133 0.215326,0.08868 0.386326,0.17101 0.513,0.247 l 0.855,-4.313 c 0.03799,-0.215319 0.107658,-0.348319 0.209,-0.399 0.113991,-0.05065 0.240658,-0.07599 0.38,-0.076 l 1.995,0 c 0.177322,0.01268 0.303989,0.03802 0.38,0.076 0.07599,0.02535 0.09499,0.139348 0.057,0.342 l -2.432,12.16"
         id="path3098"
         inkscape:connector-curvature="0" />
      <path
         d="m 51.453638,-63.088052 c -0.101339,0.456012 -0.323006,0.791678 -0.665,1.007 -0.329338,0.215345 -0.684005,0.323011 -1.064,0.323 -0.443337,1.1e-5 -0.798003,-0.107655 -1.064,-0.323 -0.253336,-0.227988 -0.342003,-0.557321 -0.266,-0.988 0.076,-0.367321 0.265997,-0.683987 0.57,-0.95 0.316663,-0.265986 0.740996,-0.398986 1.273,-0.399 0.519328,1.4e-5 0.861328,0.133014 1.026,0.399 0.177327,0.266013 0.240661,0.576346 0.19,0.931 m -2.299,11.742 c -0.038,0.202667 -0.101337,0.335667 -0.19,0.399 -0.08867,0.05067 -0.215337,0.076 -0.38,0.076 l -2.242,0 c -0.177334,0 -0.278667,-0.038 -0.304,-0.114 -0.01267,-0.08867 -0.0063,-0.202666 0.019,-0.342 l 1.786,-8.968 c 0.02533,-0.139324 0.06966,-0.240657 0.133,-0.304 0.06333,-0.07599 0.183664,-0.11399 0.361,-0.114 l 2.242,0 c 0.177328,10e-6 0.291328,0.03168 0.342,0.095 0.05066,0.05068 0.057,0.164676 0.019,0.342 l -1.786,8.93"
         id="path3100"
         inkscape:connector-curvature="0" />
      <path
         d="m 54.056638,-52.790052 c 0.189996,0.114002 0.367329,0.183669 0.532,0.209 0.177329,0.02533 0.291329,0.038 0.342,0.038 0.379995,2e-6 0.702995,-0.120331 0.969,-0.361 0.265994,-0.253331 0.487661,-0.550997 0.665,-0.893 0.189994,-0.341997 0.341993,-0.696663 0.456,-1.064 0.113993,-0.367329 0.196326,-0.677662 0.247,-0.931 0.07599,-0.417994 0.12666,-0.835994 0.152,-1.254 0.03799,-0.417993 -7e-6,-0.810659 -0.114,-1.178 -0.07601,-0.265992 -0.209007,-0.500325 -0.399,-0.703 -0.17734,-0.215325 -0.430673,-0.322991 -0.76,-0.323 -0.190006,9e-6 -0.348339,0.03167 -0.475,0.095 -0.114005,0.06334 -0.209005,0.145675 -0.285,0.247 -0.06334,0.101341 -0.114005,0.215341 -0.152,0.342 -0.038,0.126674 -0.06967,0.247008 -0.095,0.361 l -1.083,5.415 m -1.767,-6.023 c 0.05067,-0.278658 0.101331,-0.500325 0.152,-0.665 0.05066,-0.164658 0.139331,-0.310324 0.266,-0.437 0.113997,-0.113991 0.291331,-0.227991 0.532,-0.342 0.25333,-0.126657 0.550996,-0.240657 0.893,-0.342 0.354662,-0.11399 0.753662,-0.202657 1.197,-0.266 0.443328,-0.07599 0.911994,-0.11399 1.406,-0.114 0.16466,1e-5 0.37366,0.0063 0.627,0.019 0.265993,0.01268 0.544659,0.05701 0.836,0.133 0.291325,0.06334 0.576325,0.164677 0.855,0.304 0.291324,0.139343 0.544657,0.335676 0.76,0.589 0.329323,0.367342 0.557323,0.874008 0.684,1.52 0.126656,0.63334 0.107656,1.368006 -0.057,2.204 -0.126677,0.646005 -0.335676,1.304671 -0.627,1.976 -0.291343,0.65867 -0.665009,1.260336 -1.121,1.805 -0.443341,0.532001 -0.969007,0.969001 -1.577,1.311 -0.59534,0.342 -1.266672,0.513 -2.014,0.513 -0.253338,0 -0.500338,-0.02533 -0.741,-0.076 -0.228004,-0.05067 -0.44967,-0.139333 -0.665,-0.266 l -0.817,4.085 c -0.02534,0.139329 -0.076,0.246996 -0.152,0.323 -0.06334,0.076 -0.183669,0.113996 -0.361,0.114 l -2.071,0 c -0.139333,-4e-6 -0.253333,-0.019 -0.342,-0.057 -0.08867,-0.038 -0.107666,-0.158337 -0.057,-0.361 l 2.394,-11.97"
         id="path3102"
         inkscape:connector-curvature="0" />
      <path
         d="m 66.149842,-55.678052 c -0.29134,0.07601 -0.570006,0.164672 -0.836,0.266 -0.266006,0.08867 -0.513005,0.209005 -0.741,0.361 -0.215338,0.139338 -0.405338,0.323004 -0.57,0.551 -0.164671,0.228004 -0.285004,0.513003 -0.361,0.855 -0.101338,0.519336 -0.04434,0.893002 0.171,1.121 0.215329,0.215335 0.462328,0.323002 0.741,0.323 0.215328,2e-6 0.392661,-0.038 0.532,-0.114 0.139327,-0.08866 0.246994,-0.189998 0.323,-0.304 0.07599,-0.126665 0.132994,-0.253331 0.171,-0.38 0.05066,-0.139331 0.08233,-0.265997 0.095,-0.38 l 0.475,-2.299 m 2.261,2.774 c -0.03801,0.215335 -0.09501,0.437002 -0.171,0.665 -0.07601,0.215335 -0.202675,0.411668 -0.38,0.589 -0.101342,0.114001 -0.253342,0.234334 -0.456,0.361 -0.190008,0.114001 -0.443341,0.221667 -0.76,0.323 -0.304007,0.101334 -0.665007,0.183667 -1.083,0.247 -0.405339,0.076 -0.861339,0.114 -1.368,0.114 -0.139338,0 -0.335671,-0.0063 -0.589,-0.019 -0.240671,0 -0.50667,-0.03167 -0.798,-0.095 -0.291337,-0.05067 -0.58267,-0.126666 -0.874,-0.228 -0.291336,-0.114 -0.544669,-0.272333 -0.76,-0.475 -0.215335,-0.215332 -0.373668,-0.481332 -0.475,-0.798 -0.101335,-0.316665 -0.107668,-0.702998 -0.019,-1.159 0.126665,-0.620663 0.373665,-1.133663 0.741,-1.539 0.379998,-0.405329 0.829664,-0.734662 1.349,-0.988 0.519329,-0.265994 1.089329,-0.474994 1.71,-0.627 0.633328,-0.164661 1.272994,-0.31666 1.919,-0.456 l 0.209,-0.988 c 0.02533,-0.151993 0.04433,-0.310326 0.057,-0.475 0.02533,-0.164659 0.02533,-0.316659 0,-0.456 -0.02534,-0.139325 -0.08867,-0.253325 -0.19,-0.342 -0.10134,-0.08866 -0.266007,-0.132991 -0.494,-0.133 -0.17734,9e-6 -0.335673,0.03167 -0.475,0.095 -0.126673,0.06334 -0.240673,0.139342 -0.342,0.228 -0.08867,0.08868 -0.171006,0.183675 -0.247,0.285 -0.06334,0.101341 -0.120339,0.190008 -0.171,0.266 -0.152005,0.266008 -0.335672,0.513007 -0.551,0.741 -0.202671,0.228007 -0.519338,0.342007 -0.95,0.342 -0.418004,7e-6 -0.71567,-0.120326 -0.893,-0.361 -0.16467,-0.253326 -0.215336,-0.538326 -0.152,-0.855 0.05066,-0.265992 0.183664,-0.538325 0.399,-0.817 0.21533,-0.278658 0.512996,-0.525657 0.893,-0.741 0.392662,-0.22799 0.861328,-0.411657 1.406,-0.551 0.544661,-0.15199 1.177993,-0.22799 1.9,-0.228 0.341992,1e-5 0.709325,0.03168 1.102,0.095 0.392658,0.05068 0.728324,0.17101 1.007,0.361 0.215324,0.164676 0.373657,0.348343 0.475,0.551 0.101323,0.202676 0.164656,0.411676 0.19,0.627 0.02532,0.215342 0.01899,0.424342 -0.019,0.627 -0.02534,0.202675 -0.05068,0.386341 -0.076,0.551 l -1.064,5.263"
         id="path3104"
         inkscape:connector-curvature="0" />
      <path
         d="m 72.866638,-51.289052 c -0.02534,0.177334 -0.076,0.291334 -0.152,0.342 -0.076,0.05067 -0.190003,0.076 -0.342,0.076 l -2.185,0 c -0.177334,0 -0.291334,-0.02533 -0.342,-0.076 -0.038,-0.06333 -0.038,-0.183666 0,-0.361 l 1.577,-7.885 c 0.06333,-0.316658 0.145664,-0.544658 0.247,-0.684 0.101331,-0.151991 0.272331,-0.28499 0.513,-0.399 0.29133,-0.139324 0.61433,-0.253323 0.969,-0.342 0.367329,-0.101323 0.728329,-0.177323 1.083,-0.228 0.354661,-0.05066 0.690328,-0.08232 1.007,-0.095 0.31666,-0.02532 0.588993,-0.03799 0.817,-0.038 0.12666,1e-5 0.329326,0.01268 0.608,0.038 0.278659,0.01268 0.544659,0.07601 0.798,0.19 0.253325,0.101343 0.462325,0.272343 0.627,0.513 0.177324,0.240676 0.221658,0.576342 0.133,1.007 -0.06334,0.342008 -0.221675,0.633341 -0.475,0.874 -0.240675,0.240674 -0.538341,0.361007 -0.893,0.361 -0.329341,7e-6 -0.544674,-0.08866 -0.646,-0.266 -0.10134,-0.189992 -0.17734,-0.405325 -0.228,-0.646 -0.05067,-0.164658 -0.12034,-0.303991 -0.209,-0.418 -0.07601,-0.113991 -0.228006,-0.170991 -0.456,-0.171 -0.190006,9e-6 -0.348339,0.03167 -0.475,0.095 -0.114005,0.05067 -0.209005,0.126675 -0.285,0.228 -0.06334,0.08868 -0.114005,0.190008 -0.152,0.304 -0.038,0.114008 -0.06334,0.228008 -0.076,0.342 l -1.463,7.239"
         id="path3106"
         inkscape:connector-curvature="0" />
      <path
         d="m 82.166842,-59.459052 -1.083,5.453 c -0.02534,0.152003 -0.05701,0.329336 -0.095,0.532 -0.02534,0.190003 -0.01267,0.373669 0.038,0.551 0.05066,0.177335 0.145661,0.329335 0.285,0.456 0.151994,0.126668 0.386328,0.196335 0.703,0.209 0.07599,2e-6 0.158327,0.0063 0.247,0.019 0.08866,2e-6 0.16466,0.019 0.228,0.057 0.07599,0.038 0.132993,0.095 0.171,0.171 0.05066,0.076 0.05699,0.190001 0.019,0.342 -0.02534,0.152001 -0.12034,0.297667 -0.285,0.437 -0.152006,0.126667 -0.342006,0.240667 -0.57,0.342 -0.228006,0.08867 -0.481339,0.158333 -0.76,0.209 -0.278672,0.05067 -0.557338,0.076 -0.836,0.076 -0.114004,0 -0.253337,-0.0063 -0.418,-0.019 -0.152004,-0.01267 -0.323004,-0.05067 -0.513,-0.114 -0.190003,-0.05067 -0.380003,-0.126666 -0.57,-0.228 -0.177336,-0.114 -0.335669,-0.265999 -0.475,-0.456 -0.253335,-0.341999 -0.373669,-0.690332 -0.361,-1.045 0.02533,-0.367331 0.06967,-0.715664 0.133,-1.045 l 1.178,-5.947 c -0.08867,9e-6 -0.190003,9e-6 -0.304,0 -0.101336,9e-6 -0.209003,9e-6 -0.323,0 -0.101336,9e-6 -0.190002,9e-6 -0.266,0 -0.06334,-0.01266 -0.101336,-0.01899 -0.114,-0.019 -0.101335,-0.01266 -0.158335,-0.04432 -0.171,-0.095 -2e-6,-0.06332 0.0063,-0.139324 0.019,-0.228 0.038,-0.215324 0.06967,-0.37999 0.095,-0.494 0.02533,-0.11399 0.05066,-0.196324 0.076,-0.247 0.02533,-0.06332 0.05066,-0.101323 0.076,-0.114 0.038,-0.01266 0.08233,-0.02532 0.133,-0.038 0.038,-0.01266 0.177331,-0.01899 0.418,-0.019 0.240664,10e-6 0.449663,10e-6 0.627,0 l 0.19,-0.988 c 0.038,-0.177322 0.08233,-0.303989 0.133,-0.38 0.05066,-0.07599 0.170996,-0.164655 0.361,-0.266 l 2.128,-0.988 c 0.06333,-0.02532 0.120327,-0.05065 0.171,-0.076 0.05066,-0.02532 0.10766,-0.03799 0.171,-0.038 0.16466,1.3e-5 0.246993,0.06968 0.247,0.209 0.01266,0.139346 0.01266,0.253346 0,0.342 l -0.437,2.185 1.273,0 c 0.126659,10e-6 0.215325,0.01268 0.266,0.038 0.06333,0.01268 0.09499,0.06968 0.095,0.171 l -0.133,0.703 c -0.02534,0.152009 -0.08234,0.247009 -0.171,0.285 -0.07601,0.03801 -0.183674,0.05701 -0.323,0.057 l -1.273,0"
         id="path3108"
         inkscape:connector-curvature="0" />
      <path
         d="m 89.396342,-57.502052 c 0.03799,-0.417993 0.01899,-0.740992 -0.057,-0.969 -0.06334,-0.240659 -0.158341,-0.411658 -0.285,-0.513 -0.126674,-0.113992 -0.259674,-0.177325 -0.399,-0.19 -0.126673,-0.02532 -0.21534,-0.03799 -0.266,-0.038 -0.278673,9e-6 -0.532006,0.06334 -0.76,0.19 -0.228006,0.114008 -0.424339,0.272341 -0.589,0.475 -0.164672,0.202674 -0.310338,0.437007 -0.437,0.703 -0.114005,0.25334 -0.196338,0.513007 -0.247,0.779 l 3.04,-0.437 m -3.135,1.9 c -4e-6,0.139338 -4e-6,0.304005 0,0.494 -4e-6,0.177338 0.03166,0.354671 0.095,0.532 0.139329,0.405337 0.367328,0.728337 0.684,0.969 0.316661,0.228003 0.709327,0.342003 1.178,0.342 0.443327,3e-6 0.848659,-0.08866 1.216,-0.266 0.367325,-0.189997 0.664992,-0.379997 0.893,-0.57 0.227991,-0.21533 0.392658,-0.354663 0.494,-0.418 0.113991,-0.076 0.240657,-0.113996 0.38,-0.114 0.151991,4e-6 0.272324,0.06334 0.361,0.19 0.101324,0.114004 0.126657,0.291337 0.076,0.532 -0.02534,0.101336 -0.08234,0.253336 -0.171,0.456 -0.07601,0.202669 -0.196343,0.424336 -0.361,0.665 -0.152009,0.240669 -0.348342,0.494002 -0.589,0.76 -0.228008,0.253334 -0.506675,0.487668 -0.836,0.703 -0.316674,0.215334 -0.684007,0.386334 -1.102,0.513 -0.40534,0.139333 -0.861339,0.209 -1.368,0.209 -0.836004,0 -1.51367,-0.152 -2.033,-0.456 -0.506669,-0.303999 -0.893002,-0.702999 -1.159,-1.197 -0.253335,-0.493998 -0.392668,-1.057664 -0.418,-1.691 -0.02533,-0.633329 0.03167,-1.272995 0.171,-1.919 0.177331,-0.937327 0.462331,-1.728993 0.855,-2.375 0.40533,-0.658658 0.86133,-1.190658 1.368,-1.596 0.519329,-0.405324 1.057661,-0.696657 1.615,-0.874 0.569994,-0.18999 1.11466,-0.28499 1.634,-0.285 0.759992,1e-5 1.348991,0.15201 1.767,0.456 0.430657,0.30401 0.747323,0.658676 0.95,1.064 0.202656,0.405342 0.316656,0.823341 0.342,1.254 0.02532,0.418007 0.01266,0.741007 -0.038,0.969 -0.03801,0.202673 -0.09501,0.36734 -0.171,0.494 -0.07601,0.114006 -0.164677,0.202673 -0.266,0.266 -0.08868,0.06334 -0.183676,0.107672 -0.285,0.133 -0.08868,0.02534 -0.171009,0.04434 -0.247,0.057 l -5.035,0.703"
         id="path3110"
         inkscape:connector-curvature="0" />
      <path
         d="m 97.766138,-63.088052 c -0.101339,0.456012 -0.323006,0.791678 -0.665,1.007 -0.329338,0.215345 -0.684005,0.323011 -1.064,0.323 -0.443337,1.1e-5 -0.798003,-0.107655 -1.064,-0.323 -0.253336,-0.227988 -0.342003,-0.557321 -0.266,-0.988 0.076,-0.367321 0.265997,-0.683987 0.57,-0.95 0.316663,-0.265986 0.740996,-0.398986 1.273,-0.399 0.519328,1.4e-5 0.861328,0.133014 1.026,0.399 0.177327,0.266013 0.240661,0.576346 0.19,0.931 m -2.299,11.742 c -0.038,0.202667 -0.101337,0.335667 -0.19,0.399 -0.08867,0.05067 -0.215337,0.076 -0.38,0.076 l -2.242,0 c -0.177334,0 -0.278667,-0.038 -0.304,-0.114 -0.01267,-0.08867 -0.0063,-0.202666 0.019,-0.342 l 1.786,-8.968 c 0.02533,-0.139324 0.06966,-0.240657 0.133,-0.304 0.06333,-0.07599 0.183664,-0.11399 0.361,-0.114 l 2.242,0 c 0.177328,10e-6 0.291328,0.03168 0.342,0.095 0.05066,0.05068 0.057,0.164676 0.019,0.342 l -1.786,8.93"
         id="path3112"
         inkscape:connector-curvature="0" />
    </g>
    <g
       id="g3062"
       transform="translate(149.4903,419.10006)"
       style="fill:#005da8;fill-opacity:1">
      <path
         id="path8"
         d="m -93.685485,-71.225031 c 2.53797,-3.27826 17.457131,-11.29724 24.227972,3.851431 2.463955,5.512826 -1.38306,11.866991 -2.606474,15.829023 -2.896117,9.379053 10.79353,16.704957 10.79353,16.704957 0,0 -9.3517,-6.640131 -5.780902,-15.59282 3.285324,-8.237048 25.508986,-21.641561 16.856878,-33.394341 -16.576808,-22.517309 -45.889534,11.25743 -43.491004,12.60175 z"
         inkscape:connector-curvature="0"
         style="fill:#005da8;fill-opacity:1" />
      <path
         transform="matrix(0.80890861,-0.5879344,0.5879344,0.80890861,0,0)"
         style="fill:#005da8"
         d="m -30.561249,-120.69217 3.314617,0 0,41.109589 -3.314617,0 z"
         id="rect10" />
    </g>
    <g
       style="font-size:13px;font-style:italic;font-variant:normal;font-weight:bold;font-stretch:normal;line-height:125%;letter-spacing:0px;word-spacing:0px;fill:#005da8;fill-opacity:1;stroke:none;font-family:Barmeno2;-inkscape-font-specification:Barmeno2 Bold Italic"
       id="text3018-0">
      <path
         d="m 119.09334,385.81162 c 0.0953,10e-6 0.16033,-0.0173 0.195,-0.052 0.0433,-0.0346 0.0737,-0.0953 0.091,-0.182 0.0607,-0.28599 0.0823,-0.45499 0.065,-0.507 -0.009,-0.0607 -0.0693,-0.091 -0.182,-0.091 l -5.837,0 c -0.11267,10e-6 -0.18633,0.0303 -0.221,0.091 -0.0347,0.0607 -0.078,0.22535 -0.13,0.494 -0.0173,0.0953 -0.0173,0.16035 0,0.195 0.026,0.0347 0.0867,0.052 0.182,0.052 l 2.275,0 -1.612,8.086 c -0.0173,0.11267 -0.013,0.18634 0.013,0.221 0.0347,0.026 0.10833,0.039 0.221,0.039 l 0.754,0 c 0.0953,0 0.156,-0.013 0.182,-0.039 0.0347,-0.0347 0.0693,-0.104 0.104,-0.208 l 1.612,-8.099 2.288,0"
         style="font-family:Barmeno2;-inkscape-font-specification:Barmeno2 Bold Italic"
         id="path3203" />
      <path
         d="m 122.82434,386.26662 c 0.078,0.0693 0.169,0.13001 0.273,0.182 0.11266,0.0433 0.25133,0.065 0.416,0.065 0.19066,10e-6 0.364,-0.039 0.52,-0.117 0.15599,-0.0867 0.29466,-0.19066 0.416,-0.312 0.12133,-0.12999 0.21666,-0.25999 0.286,-0.39 0.0693,-0.12999 0.11266,-0.24265 0.13,-0.338 0.0173,-0.0867 0.009,-0.15165 -0.026,-0.195 -0.026,-0.0433 -0.0607,-0.065 -0.104,-0.065 -0.052,1e-5 -0.0953,0.013 -0.13,0.039 -0.026,0.0173 -0.065,0.065 -0.117,0.143 -0.009,1e-5 -0.0217,0.009 -0.039,0.026 -0.10401,0.13001 -0.21234,0.23401 -0.325,0.312 -0.10401,0.0693 -0.23401,0.10401 -0.39,0.104 -0.13867,1e-5 -0.25567,-0.026 -0.351,-0.078 -0.0953,-0.052 -0.23834,-0.15599 -0.429,-0.312 -0.156,-0.11265 -0.286,-0.19499 -0.39,-0.247 -0.0953,-0.052 -0.21667,-0.078 -0.364,-0.078 -0.19067,10e-6 -0.36834,0.0433 -0.533,0.13 -0.16467,0.0867 -0.312,0.19501 -0.442,0.325 -0.12134,0.13001 -0.221,0.26001 -0.299,0.39 -0.078,0.12134 -0.12567,0.22534 -0.143,0.312 -0.0173,0.0867 -0.009,0.15168 0.026,0.195 0.0347,0.0433 0.078,0.065 0.13,0.065 0.0953,1e-5 0.20366,-0.078 0.325,-0.234 0.009,-0.009 0.013,-0.013 0.013,-0.013 0.0953,-0.11266 0.195,-0.20366 0.299,-0.273 0.11266,-0.0693 0.25566,-0.10399 0.429,-0.104 0.13866,10e-6 0.25566,0.0303 0.351,0.091 0.0953,0.052 0.247,0.16901 0.455,0.351 l 0.013,0.026 m 1.963,4.485 c 0.0693,-0.38999 0.0823,-0.78866 0.039,-1.196 -0.0347,-0.40733 -0.14301,-0.78432 -0.325,-1.131 -0.17334,-0.34666 -0.42467,-0.62399 -0.754,-0.832 -0.32934,-0.21666 -0.73667,-0.32499 -1.222,-0.325 -0.45934,10e-6 -0.89267,0.0953 -1.3,0.286 -0.40734,0.19068 -0.77567,0.45501 -1.105,0.793 -0.32067,0.32934 -0.59367,0.70634 -0.819,1.131 -0.21667,0.42467 -0.36833,0.86667 -0.455,1.326 -0.0953,0.44201 -0.12133,0.87534 -0.078,1.3 0.052,0.416 0.17333,0.793 0.364,1.131 0.19067,0.32934 0.455,0.59367 0.793,0.793 0.338,0.19067 0.741,0.286 1.209,0.286 0.45933,0 0.89266,-0.0997 1.3,-0.299 0.40733,-0.19933 0.77133,-0.46366 1.092,-0.793 0.32066,-0.338 0.58933,-0.71933 0.806,-1.144 0.21666,-0.43333 0.36833,-0.87533 0.455,-1.326 m -1.209,-0.091 c -0.182,0.91001 -0.481,1.61634 -0.897,2.119 -0.40734,0.494 -0.85367,0.741 -1.339,0.741 -0.494,0 -0.871,-0.26433 -1.131,-0.793 -0.26,-0.52866 -0.30333,-1.23066 -0.13,-2.106 0.156,-0.77999 0.43767,-1.41266 0.845,-1.898 0.40733,-0.48532 0.86666,-0.72799 1.378,-0.728 0.468,1e-5 0.82766,0.23401 1.079,0.702 0.26,0.45934 0.325,1.11367 0.195,1.963"
         style="font-family:Barmeno2;-inkscape-font-specification:Barmeno2 Bold Italic"
         id="path3205" />
      <path
         d="m 130.74764,389.99762 0.013,0 c 0.11266,-0.0173 0.20799,-0.052 0.286,-0.104 0.078,-0.052 0.12999,-0.15599 0.156,-0.312 0.0347,-0.17333 0.039,-0.38566 0.013,-0.637 -0.026,-0.25132 -0.10401,-0.50266 -0.234,-0.754 -0.13001,-0.25999 -0.34667,-0.47666 -0.65,-0.65 -0.29467,-0.18199 -0.68034,-0.27299 -1.157,-0.273 -0.37267,10e-6 -0.71501,0.0563 -1.027,0.169 -0.31201,0.11268 -0.58067,0.25134 -0.806,0.416 -0.22534,0.16468 -0.403,0.32068 -0.533,0.468 -0.13,0.13868 -0.23834,0.26868 -0.325,0.39 -0.19067,0.25134 -0.35967,0.55034 -0.507,0.897 -0.14734,0.34667 -0.26434,0.74534 -0.351,1.196 -0.078,0.36401 -0.12134,0.71501 -0.13,1.053 0,0.33801 0.0477,0.65434 0.143,0.949 0.078,0.286 0.195,0.52867 0.351,0.728 0.156,0.19067 0.32933,0.34667 0.52,0.468 0.19933,0.11267 0.403,0.19067 0.611,0.234 0.21666,0.052 0.42899,0.078 0.637,0.078 0.46799,0 0.88833,-0.091 1.261,-0.273 0.37266,-0.19066 0.68899,-0.42033 0.949,-0.689 0.25999,-0.26866 0.45933,-0.52433 0.598,-0.767 0.13866,-0.25133 0.22099,-0.43333 0.247,-0.546 0.0173,-0.12133 -10e-6,-0.20366 -0.052,-0.247 -0.0433,-0.0433 -0.0953,-0.065 -0.156,-0.065 -0.078,10e-6 -0.14301,0.0217 -0.195,0.065 -0.0433,0.0433 -0.12567,0.14734 -0.247,0.312 -0.30334,0.364 -0.62401,0.64567 -0.962,0.845 -0.33801,0.19934 -0.69334,0.299 -1.066,0.299 -0.52867,0 -0.94034,-0.22966 -1.235,-0.689 -0.286,-0.45933 -0.36834,-1.11799 -0.247,-1.976 l 4.095,-0.585 m -3.965,-0.052 c 0.19066,-0.59799 0.46366,-1.07032 0.819,-1.417 0.35533,-0.34666 0.78433,-0.51999 1.287,-0.52 0.36399,10e-6 0.64999,0.13868 0.858,0.416 0.20799,0.27734 0.28599,0.62401 0.234,1.04 l -3.198,0.481"
         style="font-family:Barmeno2;-inkscape-font-specification:Barmeno2 Bold Italic"
         id="path3207" />
      <path
         d="m 131.58634,393.92362 c -0.026,0.104 -0.0303,0.169 -0.013,0.195 0.026,0.026 0.0953,0.039 0.208,0.039 l 0.663,0 c 0.0953,0 0.16033,-0.013 0.195,-0.039 0.0433,-0.0347 0.078,-0.0997 0.104,-0.195 l 1.898,-9.503 c 0.0173,-0.0953 0.013,-0.15165 -0.013,-0.169 -0.026,-0.026 -0.091,-0.039 -0.195,-0.039 l -0.65,0 c -0.0953,10e-6 -0.16467,0.013 -0.208,0.039 -0.0433,0.0174 -0.0737,0.0737 -0.091,0.169 l -1.898,9.503"
         style="font-family:Barmeno2;-inkscape-font-specification:Barmeno2 Bold Italic"
         id="path3209" />
      <path
         d="m 136.69514,387.67062 c 0.0173,-0.10399 0.013,-0.16899 -0.013,-0.195 -0.026,-0.0347 -0.091,-0.052 -0.195,-0.052 l -0.676,0 c -0.104,10e-6 -0.17334,0.0173 -0.208,0.052 -0.026,0.0347 -0.0477,0.0997 -0.065,0.195 l -1.248,6.253 c -0.026,0.0953 -0.0303,0.16034 -0.013,0.195 0.0173,0.026 0.0693,0.039 0.156,0.039 l 0.702,0 c 0.104,0 0.17333,-0.013 0.208,-0.039 0.0433,-0.026 0.078,-0.091 0.104,-0.195 l 1.248,-6.253 m 0.546,-2.119 c 0.0347,-0.19065 -0.004,-0.34665 -0.117,-0.468 -0.11267,-0.12132 -0.26001,-0.18199 -0.442,-0.182 -0.20801,1e-5 -0.39434,0.065 -0.559,0.195 -0.156,0.13001 -0.25134,0.29468 -0.286,0.494 -0.0433,0.19068 -0.0173,0.35101 0.078,0.481 0.104,0.13001 0.26433,0.19501 0.481,0.195 0.21666,1e-5 0.40299,-0.0693 0.559,-0.208 0.15599,-0.14732 0.25133,-0.31632 0.286,-0.507"
         style="font-family:Barmeno2;-inkscape-font-specification:Barmeno2 Bold Italic"
         id="path3211" />
      <path
         d="m 143.14293,389.41262 c 0.052,-0.27733 0.0823,-0.52432 0.091,-0.741 0.009,-0.21666 -0.0433,-0.43332 -0.156,-0.65 -0.11267,-0.21666 -0.32934,-0.39432 -0.65,-0.533 -0.312,-0.14732 -0.75833,-0.22099 -1.339,-0.221 -0.0953,10e-6 -0.221,0.004 -0.377,0.013 -0.14733,0.009 -0.32933,0.026 -0.546,0.052 -0.21667,0.026 -0.45067,0.0737 -0.702,0.143 -0.25133,0.0607 -0.48533,0.14301 -0.702,0.247 -0.22533,0.10401 -0.39,0.22534 -0.494,0.364 -0.0953,0.13001 -0.169,0.32501 -0.221,0.585 l -1.04,5.239 c -0.0173,0.0953 -0.013,0.16034 0.013,0.195 0.026,0.0347 0.0867,0.052 0.182,0.052 l 0.637,0 c 0.104,0 0.17767,-0.013 0.221,-0.039 0.0433,-0.0347 0.078,-0.10833 0.104,-0.221 l 0.962,-4.797 c 0.026,-0.12999 0.0607,-0.25132 0.104,-0.364 0.0433,-0.11266 0.12134,-0.22966 0.234,-0.351 0.11267,-0.12999 0.27733,-0.23399 0.494,-0.312 0.21667,-0.0867 0.48533,-0.12999 0.806,-0.13 0.35533,10e-6 0.62833,0.052 0.819,0.156 0.19067,0.0953 0.31633,0.22534 0.377,0.39 0.0693,0.15601 0.0953,0.31634 0.078,0.481 -0.009,0.15601 -0.0347,0.34234 -0.078,0.559 l -0.871,4.368 c -0.026,0.11267 -0.0217,0.18634 0.013,0.221 0.0347,0.026 0.10833,0.039 0.221,0.039 l 0.715,0 c 0.0607,-0.009 0.104,-0.0347 0.13,-0.078 0.0347,-0.052 0.0607,-0.11266 0.078,-0.182 l 0.897,-4.485"
         style="font-family:Barmeno2;-inkscape-font-specification:Barmeno2 Bold Italic"
         id="path3213" />
      <path
         d="m 149.18123,389.99762 0.013,0 c 0.11266,-0.0173 0.208,-0.052 0.286,-0.104 0.078,-0.052 0.13,-0.15599 0.156,-0.312 0.0347,-0.17333 0.039,-0.38566 0.013,-0.637 -0.026,-0.25132 -0.104,-0.50266 -0.234,-0.754 -0.13,-0.25999 -0.34667,-0.47666 -0.65,-0.65 -0.29467,-0.18199 -0.68034,-0.27299 -1.157,-0.273 -0.37267,10e-6 -0.715,0.0563 -1.027,0.169 -0.312,0.11268 -0.58067,0.25134 -0.806,0.416 -0.22533,0.16468 -0.403,0.32068 -0.533,0.468 -0.13,0.13868 -0.23833,0.26868 -0.325,0.39 -0.19067,0.25134 -0.35967,0.55034 -0.507,0.897 -0.14733,0.34667 -0.26433,0.74534 -0.351,1.196 -0.078,0.36401 -0.12133,0.71501 -0.13,1.053 0,0.33801 0.0477,0.65434 0.143,0.949 0.078,0.286 0.195,0.52867 0.351,0.728 0.156,0.19067 0.32933,0.34667 0.52,0.468 0.19933,0.11267 0.403,0.19067 0.611,0.234 0.21667,0.052 0.429,0.078 0.637,0.078 0.468,0 0.88833,-0.091 1.261,-0.273 0.37266,-0.19066 0.689,-0.42033 0.949,-0.689 0.26,-0.26866 0.45933,-0.52433 0.598,-0.767 0.13866,-0.25133 0.221,-0.43333 0.247,-0.546 0.0173,-0.12133 0,-0.20366 -0.052,-0.247 -0.0433,-0.0433 -0.0953,-0.065 -0.156,-0.065 -0.078,10e-6 -0.143,0.0217 -0.195,0.065 -0.0433,0.0433 -0.12567,0.14734 -0.247,0.312 -0.30334,0.364 -0.624,0.64567 -0.962,0.845 -0.338,0.19934 -0.69334,0.299 -1.066,0.299 -0.52867,0 -0.94033,-0.22966 -1.235,-0.689 -0.286,-0.45933 -0.36833,-1.11799 -0.247,-1.976 l 4.095,-0.585 m -3.965,-0.052 c 0.19067,-0.59799 0.46367,-1.07032 0.819,-1.417 0.35533,-0.34666 0.78433,-0.51999 1.287,-0.52 0.364,10e-6 0.65,0.13868 0.858,0.416 0.208,0.27734 0.286,0.62401 0.234,1.04 l -3.198,0.481"
         style="font-family:Barmeno2;-inkscape-font-specification:Barmeno2 Bold Italic"
         id="path3215" />
      <path
         d="m 155.44093,388.81462 0,-0.013 c 0.026,-0.11266 0.0563,-0.21666 0.091,-0.312 0.0347,-0.0953 0.0867,-0.18632 0.156,-0.273 0.0693,-0.0953 0.16467,-0.16899 0.286,-0.221 0.12133,-0.0607 0.26867,-0.091 0.442,-0.091 0.17333,10e-6 0.30333,0.026 0.39,0.078 0.0867,0.052 0.17333,0.13434 0.26,0.247 l 0,0 c 0.0953,0.13868 0.17333,0.23401 0.234,0.286 0.0607,0.0433 0.143,0.065 0.247,0.065 0.156,10e-6 0.29467,-0.052 0.416,-0.156 0.12133,-0.11266 0.195,-0.24699 0.221,-0.403 0.0607,-0.27732 -0.026,-0.47232 -0.26,-0.585 -0.234,-0.11266 -0.54167,-0.16899 -0.923,-0.169 -0.39867,10e-6 -0.80167,0.0477 -1.209,0.143 -0.39866,0.0867 -0.715,0.19068 -0.949,0.312 -0.156,0.078 -0.26866,0.16901 -0.338,0.273 -0.0607,0.10401 -0.11266,0.27301 -0.156,0.507 l -1.092,5.434 c -0.0173,0.0953 -0.013,0.156 0.013,0.182 0.0347,0.026 0.104,0.039 0.208,0.039 l 0.663,0 c 0.0867,0 0.14734,-0.013 0.182,-0.039 0.0347,-0.026 0.065,-0.0867 0.091,-0.182 l 1.027,-5.122"
         style="font-family:Barmeno2;-inkscape-font-specification:Barmeno2 Bold Italic"
         id="path3217" />
      <path
         d="m 162.99373,389.99762 0.013,0 c 0.11266,-0.0173 0.208,-0.052 0.286,-0.104 0.078,-0.052 0.13,-0.15599 0.156,-0.312 0.0347,-0.17333 0.039,-0.38566 0.013,-0.637 -0.026,-0.25132 -0.104,-0.50266 -0.234,-0.754 -0.13,-0.25999 -0.34667,-0.47666 -0.65,-0.65 -0.29467,-0.18199 -0.68034,-0.27299 -1.157,-0.273 -0.37267,10e-6 -0.715,0.0563 -1.027,0.169 -0.312,0.11268 -0.58067,0.25134 -0.806,0.416 -0.22533,0.16468 -0.403,0.32068 -0.533,0.468 -0.13,0.13868 -0.23833,0.26868 -0.325,0.39 -0.19067,0.25134 -0.35967,0.55034 -0.507,0.897 -0.14733,0.34667 -0.26433,0.74534 -0.351,1.196 -0.078,0.36401 -0.12133,0.71501 -0.13,1.053 0,0.33801 0.0477,0.65434 0.143,0.949 0.078,0.286 0.195,0.52867 0.351,0.728 0.156,0.19067 0.32933,0.34667 0.52,0.468 0.19933,0.11267 0.403,0.19067 0.611,0.234 0.21667,0.052 0.429,0.078 0.637,0.078 0.468,0 0.88833,-0.091 1.261,-0.273 0.37266,-0.19066 0.689,-0.42033 0.949,-0.689 0.26,-0.26866 0.45933,-0.52433 0.598,-0.767 0.13866,-0.25133 0.221,-0.43333 0.247,-0.546 0.0173,-0.12133 0,-0.20366 -0.052,-0.247 -0.0433,-0.0433 -0.0953,-0.065 -0.156,-0.065 -0.078,10e-6 -0.143,0.0217 -0.195,0.065 -0.0433,0.0433 -0.12567,0.14734 -0.247,0.312 -0.30334,0.364 -0.624,0.64567 -0.962,0.845 -0.338,0.19934 -0.69334,0.299 -1.066,0.299 -0.52867,0 -0.94033,-0.22966 -1.235,-0.689 -0.286,-0.45933 -0.36833,-1.11799 -0.247,-1.976 l 4.095,-0.585 m -3.965,-0.052 c 0.19067,-0.59799 0.46367,-1.07032 0.819,-1.417 0.35533,-0.34666 0.78433,-0.51999 1.287,-0.52 0.364,10e-6 0.65,0.13868 0.858,0.416 0.208,0.27734 0.286,0.62401 0.234,1.04 l -3.198,0.481"
         style="font-family:Barmeno2;-inkscape-font-specification:Barmeno2 Bold Italic"
         id="path3219" />
      <path
         d="m 167.55043,388.00862 c 0.104,10e-6 0.17333,-0.009 0.208,-0.026 0.0347,-0.0173 0.0607,-0.065 0.078,-0.143 0.0347,-0.18199 0.0433,-0.29466 0.026,-0.338 -0.009,-0.052 -0.0737,-0.078 -0.195,-0.078 l -1.079,0 c -0.026,-0.12999 -0.0433,-0.25999 -0.052,-0.39 0,-0.13866 0.026,-0.33799 0.078,-0.598 0.0867,-0.43332 0.221,-0.76699 0.403,-1.001 0.19067,-0.24265 0.429,-0.36399 0.715,-0.364 l 0.403,0 c 0.11267,-0.0173 0.21233,-0.065 0.299,-0.143 0.0953,-0.078 0.156,-0.18199 0.182,-0.312 0.026,-0.15599 -0.004,-0.27732 -0.091,-0.364 -0.0867,-0.0953 -0.21667,-0.14299 -0.39,-0.143 -0.338,1e-5 -0.676,0.11701 -1.014,0.351 -0.338,0.22535 -0.624,0.51568 -0.858,0.871 -0.19066,0.28601 -0.351,0.60234 -0.481,0.949 -0.12133,0.33801 -0.234,0.71934 -0.338,1.144 l -0.741,0 c -0.11266,10e-6 -0.18633,0.0217 -0.221,0.065 -0.026,0.0347 -0.0607,0.14734 -0.104,0.338 -0.0173,0.0867 -0.013,0.13868 0.013,0.156 0.0347,0.0173 0.104,0.026 0.208,0.026 l 0.728,0 -1.183,5.863 c -0.0173,0.11267 -0.0173,0.19067 0,0.234 0.0173,0.0347 0.078,0.052 0.182,0.052 l 0.676,0 c 0.0953,0 0.16467,-0.0173 0.208,-0.052 0.052,-0.0347 0.0867,-0.10833 0.104,-0.221 l 1.183,-5.876 1.053,0"
         style="font-family:Barmeno2;-inkscape-font-specification:Barmeno2 Bold Italic"
         id="path3221" />
      <path
         d="m 173.56273,390.75162 c 0.0693,-0.38999 0.0823,-0.78866 0.039,-1.196 -0.0347,-0.40733 -0.14301,-0.78432 -0.325,-1.131 -0.17334,-0.34666 -0.42467,-0.62399 -0.754,-0.832 -0.32934,-0.21666 -0.73667,-0.32499 -1.222,-0.325 -0.45934,10e-6 -0.89267,0.0953 -1.3,0.286 -0.40733,0.19068 -0.77567,0.45501 -1.105,0.793 -0.32067,0.32934 -0.59367,0.70634 -0.819,1.131 -0.21667,0.42467 -0.36833,0.86667 -0.455,1.326 -0.0953,0.44201 -0.12133,0.87534 -0.078,1.3 0.052,0.416 0.17333,0.793 0.364,1.131 0.19067,0.32934 0.455,0.59367 0.793,0.793 0.338,0.19067 0.741,0.286 1.209,0.286 0.45933,0 0.89266,-0.0997 1.3,-0.299 0.40733,-0.19933 0.77133,-0.46366 1.092,-0.793 0.32066,-0.338 0.58933,-0.71933 0.806,-1.144 0.21666,-0.43333 0.36833,-0.87533 0.455,-1.326 m -1.209,-0.091 c -0.182,0.91001 -0.481,1.61634 -0.897,2.119 -0.40734,0.494 -0.85367,0.741 -1.339,0.741 -0.494,0 -0.871,-0.26433 -1.131,-0.793 -0.26,-0.52866 -0.30333,-1.23066 -0.13,-2.106 0.156,-0.77999 0.43767,-1.41266 0.845,-1.898 0.40733,-0.48532 0.86666,-0.72799 1.378,-0.728 0.468,1e-5 0.82766,0.23401 1.079,0.702 0.26,0.45934 0.325,1.11367 0.195,1.963"
         style="font-family:Barmeno2;-inkscape-font-specification:Barmeno2 Bold Italic"
         id="path3223" />
      <path
         d="m 176.31203,388.81462 0,-0.013 c 0.026,-0.11266 0.0563,-0.21666 0.091,-0.312 0.0347,-0.0953 0.0867,-0.18632 0.156,-0.273 0.0693,-0.0953 0.16466,-0.16899 0.286,-0.221 0.12133,-0.0607 0.26866,-0.091 0.442,-0.091 0.17333,10e-6 0.30333,0.026 0.39,0.078 0.0867,0.052 0.17333,0.13434 0.26,0.247 l 0,0 c 0.0953,0.13868 0.17333,0.23401 0.234,0.286 0.0607,0.0433 0.14299,0.065 0.247,0.065 0.15599,10e-6 0.29466,-0.052 0.416,-0.156 0.12133,-0.11266 0.19499,-0.24699 0.221,-0.403 0.0607,-0.27732 -0.026,-0.47232 -0.26,-0.585 -0.23401,-0.11266 -0.54167,-0.16899 -0.923,-0.169 -0.39867,10e-6 -0.80167,0.0477 -1.209,0.143 -0.39867,0.0867 -0.715,0.19068 -0.949,0.312 -0.156,0.078 -0.26867,0.16901 -0.338,0.273 -0.0607,0.10401 -0.11267,0.27301 -0.156,0.507 l -1.092,5.434 c -0.0173,0.0953 -0.013,0.156 0.013,0.182 0.0347,0.026 0.104,0.039 0.208,0.039 l 0.663,0 c 0.0867,0 0.14733,-0.013 0.182,-0.039 0.0347,-0.026 0.065,-0.0867 0.091,-0.182 l 1.027,-5.122"
         style="font-family:Barmeno2;-inkscape-font-specification:Barmeno2 Bold Italic"
         id="path3225" />
      <path
         d="m 178.45683,393.91062 c -0.026,0.104 -0.026,0.17334 0,0.208 0.0347,0.026 0.0953,0.039 0.182,0.039 l 0.663,0 c 0.10399,0 0.17333,-0.013 0.208,-0.039 0.0433,-0.0347 0.078,-0.104 0.104,-0.208 l 0.91,-4.55 c 0.0347,-0.16466 0.0737,-0.31632 0.117,-0.455 0.052,-0.14732 0.12999,-0.29466 0.234,-0.442 0.11266,-0.14732 0.26433,-0.26866 0.455,-0.364 0.19932,-0.0953 0.44632,-0.14299 0.741,-0.143 0.28599,1e-5 0.50266,0.0563 0.65,0.169 0.15599,0.11268 0.25566,0.25568 0.299,0.429 0.052,0.16468 0.0693,0.32934 0.052,0.494 -0.009,0.16467 -0.0303,0.33367 -0.065,0.507 l -0.871,4.368 c -0.026,0.104 -0.026,0.169 0,0.195 0.0347,0.026 0.10399,0.039 0.208,0.039 l 0.676,0 c 0.0953,0 0.16032,-0.0173 0.195,-0.052 0.0347,-0.0347 0.0607,-0.0997 0.078,-0.195 l 0.91,-4.55 c 0.052,-0.25999 0.11266,-0.46366 0.182,-0.611 0.0693,-0.15599 0.19932,-0.30766 0.39,-0.455 0.11265,-0.0867 0.25132,-0.15599 0.416,-0.208 0.16465,-0.0607 0.34665,-0.091 0.546,-0.091 0.28599,1e-5 0.50699,0.052 0.663,0.156 0.15599,0.0953 0.25565,0.22534 0.299,0.39 0.052,0.16468 0.0693,0.33368 0.052,0.507 -0.0174,0.16467 -0.0477,0.36834 -0.091,0.611 l 0,0.013 -0.845,4.238 c -0.026,0.104 -0.026,0.17334 0,0.208 0.0346,0.026 0.0953,0.039 0.182,0.039 l 0.689,0 c 0.0953,-0.009 0.16032,-0.0303 0.195,-0.065 0.0433,-0.0347 0.0736,-0.0953 0.091,-0.182 l 0.91,-4.55 c 0.052,-0.26866 0.0823,-0.50699 0.091,-0.715 0.0173,-0.20799 -0.0173,-0.42032 -0.104,-0.637 -0.0867,-0.21666 -0.26435,-0.39432 -0.533,-0.533 -0.26868,-0.13866 -0.65001,-0.20799 -1.144,-0.208 -0.31201,10e-6 -0.58935,0.026 -0.832,0.078 -0.23401,0.0433 -0.43768,0.10401 -0.611,0.182 -0.17334,0.078 -0.31634,0.15601 -0.429,0.234 -0.10401,0.078 -0.22101,0.17334 -0.351,0.286 l 0,0 c -0.052,-0.0953 -0.11268,-0.18199 -0.182,-0.26 -0.0607,-0.078 -0.16034,-0.15599 -0.299,-0.234 -0.13001,-0.0867 -0.30768,-0.15599 -0.533,-0.208 -0.21668,-0.052 -0.47668,-0.078 -0.78,-0.078 -0.38134,10e-6 -0.78001,0.0477 -1.196,0.143 -0.40734,0.0953 -0.73234,0.22101 -0.975,0.377 -0.15601,0.10401 -0.26867,0.21668 -0.338,0.338 -0.0607,0.12134 -0.11701,0.30768 -0.169,0.559 l -1.04,5.226"
         style="font-family:Barmeno2;-inkscape-font-specification:Barmeno2 Bold Italic"
         id="path3227" />
      <path
         d="m 190.90412,387.67062 c 0.0173,-0.10399 0.013,-0.16899 -0.013,-0.195 -0.026,-0.0347 -0.091,-0.052 -0.195,-0.052 l -0.676,0 c -0.104,10e-6 -0.17333,0.0173 -0.208,0.052 -0.026,0.0347 -0.0477,0.0997 -0.065,0.195 l -1.248,6.253 c -0.026,0.0953 -0.0303,0.16034 -0.013,0.195 0.0173,0.026 0.0693,0.039 0.156,0.039 l 0.702,0 c 0.104,0 0.17333,-0.013 0.208,-0.039 0.0433,-0.026 0.078,-0.091 0.104,-0.195 l 1.248,-6.253 m 0.546,-2.119 c 0.0347,-0.19065 -0.004,-0.34665 -0.117,-0.468 -0.11267,-0.12132 -0.26,-0.18199 -0.442,-0.182 -0.208,1e-5 -0.39433,0.065 -0.559,0.195 -0.156,0.13001 -0.25133,0.29468 -0.286,0.494 -0.0433,0.19068 -0.0173,0.35101 0.078,0.481 0.104,0.13001 0.26433,0.19501 0.481,0.195 0.21667,1e-5 0.403,-0.0693 0.559,-0.208 0.156,-0.14732 0.25133,-0.31632 0.286,-0.507"
         style="font-family:Barmeno2;-inkscape-font-specification:Barmeno2 Bold Italic"
         id="path3229" />
      <path
         d="m 196.61092,389.99762 0.013,0 c 0.11266,-0.0173 0.20799,-0.052 0.286,-0.104 0.078,-0.052 0.12999,-0.15599 0.156,-0.312 0.0347,-0.17333 0.039,-0.38566 0.013,-0.637 -0.026,-0.25132 -0.10401,-0.50266 -0.234,-0.754 -0.13001,-0.25999 -0.34667,-0.47666 -0.65,-0.65 -0.29467,-0.18199 -0.68034,-0.27299 -1.157,-0.273 -0.37267,10e-6 -0.715,0.0563 -1.027,0.169 -0.312,0.11268 -0.58067,0.25134 -0.806,0.416 -0.22534,0.16468 -0.403,0.32068 -0.533,0.468 -0.13,0.13868 -0.23834,0.26868 -0.325,0.39 -0.19067,0.25134 -0.35967,0.55034 -0.507,0.897 -0.14734,0.34667 -0.26434,0.74534 -0.351,1.196 -0.078,0.36401 -0.12134,0.71501 -0.13,1.053 0,0.33801 0.0477,0.65434 0.143,0.949 0.078,0.286 0.195,0.52867 0.351,0.728 0.156,0.19067 0.32933,0.34667 0.52,0.468 0.19933,0.11267 0.403,0.19067 0.611,0.234 0.21666,0.052 0.429,0.078 0.637,0.078 0.468,0 0.88833,-0.091 1.261,-0.273 0.37266,-0.19066 0.68899,-0.42033 0.949,-0.689 0.25999,-0.26866 0.45933,-0.52433 0.598,-0.767 0.13866,-0.25133 0.22099,-0.43333 0.247,-0.546 0.0173,-0.12133 -1e-5,-0.20366 -0.052,-0.247 -0.0433,-0.0433 -0.0953,-0.065 -0.156,-0.065 -0.078,10e-6 -0.14301,0.0217 -0.195,0.065 -0.0433,0.0433 -0.12567,0.14734 -0.247,0.312 -0.30334,0.364 -0.62401,0.64567 -0.962,0.845 -0.33801,0.19934 -0.69334,0.299 -1.066,0.299 -0.52867,0 -0.94034,-0.22966 -1.235,-0.689 -0.286,-0.45933 -0.36834,-1.11799 -0.247,-1.976 l 4.095,-0.585 m -3.965,-0.052 c 0.19066,-0.59799 0.46366,-1.07032 0.819,-1.417 0.35533,-0.34666 0.78433,-0.51999 1.287,-0.52 0.36399,10e-6 0.64999,0.13868 0.858,0.416 0.20799,0.27734 0.28599,0.62401 0.234,1.04 l -3.198,0.481"
         style="font-family:Barmeno2;-inkscape-font-specification:Barmeno2 Bold Italic"
         id="path3231" />
      <path
         d="m 199.62062,388.81462 0,-0.013 c 0.026,-0.11266 0.0563,-0.21666 0.091,-0.312 0.0347,-0.0953 0.0867,-0.18632 0.156,-0.273 0.0693,-0.0953 0.16467,-0.16899 0.286,-0.221 0.12133,-0.0607 0.26867,-0.091 0.442,-0.091 0.17333,10e-6 0.30333,0.026 0.39,0.078 0.0867,0.052 0.17333,0.13434 0.26,0.247 l 0,0 c 0.0953,0.13868 0.17333,0.23401 0.234,0.286 0.0607,0.0433 0.143,0.065 0.247,0.065 0.156,10e-6 0.29466,-0.052 0.416,-0.156 0.12133,-0.11266 0.195,-0.24699 0.221,-0.403 0.0607,-0.27732 -0.026,-0.47232 -0.26,-0.585 -0.234,-0.11266 -0.54167,-0.16899 -0.923,-0.169 -0.39867,10e-6 -0.80167,0.0477 -1.209,0.143 -0.39867,0.0867 -0.715,0.19068 -0.949,0.312 -0.156,0.078 -0.26867,0.16901 -0.338,0.273 -0.0607,0.10401 -0.11267,0.27301 -0.156,0.507 l -1.092,5.434 c -0.0173,0.0953 -0.013,0.156 0.013,0.182 0.0347,0.026 0.104,0.039 0.208,0.039 l 0.663,0 c 0.0867,0 0.14733,-0.013 0.182,-0.039 0.0347,-0.026 0.065,-0.0867 0.091,-0.182 l 1.027,-5.122"
         style="font-family:Barmeno2;-inkscape-font-specification:Barmeno2 Bold Italic"
         id="path3233" />
      <path
         d="m 206.93942,389.34762 0,-0.013 c 0.052,-0.25132 0.0823,-0.48099 0.091,-0.689 0.009,-0.21666 -0.026,-0.42899 -0.104,-0.637 -0.078,-0.21666 -0.23834,-0.39432 -0.481,-0.533 -0.24267,-0.13866 -0.58501,-0.20799 -1.027,-0.208 -0.676,10e-6 -1.274,0.16034 -1.794,0.481 -0.24267,0.14734 -0.442,0.31634 -0.598,0.507 -0.14734,0.18201 -0.24267,0.36834 -0.286,0.559 -0.0347,0.18201 -0.004,0.32067 0.091,0.416 0.0953,0.0867 0.20366,0.13001 0.325,0.13 0.16466,1e-5 0.29466,-0.0433 0.39,-0.13 0.0953,-0.0953 0.19066,-0.23399 0.286,-0.416 l 0.013,-0.013 c 0.0693,-0.10399 0.13433,-0.19499 0.195,-0.273 0.0607,-0.0867 0.13866,-0.17332 0.234,-0.26 0.104,-0.0953 0.22533,-0.16899 0.364,-0.221 0.13866,-0.0607 0.29466,-0.091 0.468,-0.091 0.23399,1e-5 0.40733,0.0477 0.52,0.143 0.12133,0.0867 0.19933,0.19934 0.234,0.338 0.0347,0.13868 0.0433,0.28168 0.026,0.429 -0.0173,0.13868 -0.0433,0.29901 -0.078,0.481 l -0.13,0.663 c -0.702,0.19067 -1.25667,0.35534 -1.664,0.494 -0.40734,0.13001 -0.78,0.28601 -1.118,0.468 -0.338,0.17334 -0.61534,0.39001 -0.832,0.65 -0.21667,0.25134 -0.35967,0.55901 -0.429,0.923 -0.0867,0.40734 -0.0607,0.73667 0.078,0.988 0.13867,0.24267 0.32933,0.42034 0.572,0.533 0.24266,0.11267 0.468,0.182 0.676,0.208 0.21666,0.026 0.416,0.039 0.598,0.039 0.32066,0 0.65433,-0.0303 1.001,-0.091 0.34666,-0.052 0.64566,-0.13866 0.897,-0.26 0.25133,-0.12133 0.42899,-0.26433 0.533,-0.429 0.10399,-0.17333 0.19066,-0.42033 0.26,-0.741 l 0.689,-3.445 m -1.794,3.315 c -0.026,0.12134 -0.0563,0.234 -0.091,0.338 -0.0347,0.0953 -0.0953,0.19067 -0.182,0.286 -0.0867,0.0953 -0.208,0.17334 -0.364,0.234 -0.156,0.0607 -0.351,0.091 -0.585,0.091 -0.30334,0 -0.53734,-0.052 -0.702,-0.156 -0.16467,-0.11266 -0.273,-0.24266 -0.325,-0.39 -0.052,-0.14733 -0.078,-0.27733 -0.078,-0.39 0.009,-0.12133 0.0173,-0.221 0.026,-0.299 0.0953,-0.45066 0.38566,-0.81033 0.871,-1.079 0.208,-0.12133 0.442,-0.22533 0.702,-0.312 0.26,-0.0953 0.637,-0.21666 1.131,-0.364 l 0,0 -0.403,2.041"
         style="font-family:Barmeno2;-inkscape-font-specification:Barmeno2 Bold Italic"
         id="path3235" />
      <path
         d="m 213.48492,387.80062 0.026,-0.026 c 0.0953,-0.0867 0.14733,-0.15599 0.156,-0.208 0.0173,-0.0693 -0.009,-0.10832 -0.078,-0.117 -0.0607,-0.0173 -0.28167,-0.026 -0.663,-0.026 -0.11267,10e-6 -0.19501,0.013 -0.247,0.039 -0.052,0.026 -0.13867,0.091 -0.26,0.195 l -3.107,2.795 1.209,-6.058 c 0.0173,-0.078 0.009,-0.12565 -0.026,-0.143 -0.026,-0.026 -0.0867,-0.039 -0.182,-0.039 l -0.689,0 c -0.14734,10e-6 -0.234,0.0693 -0.26,0.208 l -1.911,9.529 c -0.0173,0.0867 -0.0173,0.143 0,0.169 0.026,0.026 0.0867,0.039 0.182,0.039 l 0.689,0 c 0.104,0 0.17333,-0.009 0.208,-0.026 0.0347,-0.026 0.0607,-0.0823 0.078,-0.169 l 0.663,-3.315 2.015,3.315 c 0.0607,0.0953 0.10833,0.15167 0.143,0.169 0.0347,0.0173 0.10399,0.026 0.208,0.026 l 0.884,0 c 0.0433,0 0.0823,-0.004 0.117,-0.013 0.0433,-0.0173 0.0693,-0.0563 0.078,-0.117 0.009,-0.0433 -0.009,-0.10833 -0.052,-0.195 l -0.013,-0.013 -2.08,-3.367 2.912,-2.652"
         style="font-family:Barmeno2;-inkscape-font-specification:Barmeno2 Bold Italic"
         id="path3237" />
      <path
         d="m 219.64672,390.75162 c 0.0693,-0.38999 0.0823,-0.78866 0.039,-1.196 -0.0347,-0.40733 -0.14301,-0.78432 -0.325,-1.131 -0.17334,-0.34666 -0.42468,-0.62399 -0.754,-0.832 -0.32934,-0.21666 -0.73668,-0.32499 -1.222,-0.325 -0.45934,10e-6 -0.89267,0.0953 -1.3,0.286 -0.40734,0.19068 -0.77567,0.45501 -1.105,0.793 -0.32067,0.32934 -0.59367,0.70634 -0.819,1.131 -0.21667,0.42467 -0.36834,0.86667 -0.455,1.326 -0.0953,0.44201 -0.12134,0.87534 -0.078,1.3 0.052,0.416 0.17333,0.793 0.364,1.131 0.19066,0.32934 0.45499,0.59367 0.793,0.793 0.33799,0.19067 0.74099,0.286 1.209,0.286 0.45933,0 0.89266,-0.0997 1.3,-0.299 0.40732,-0.19933 0.77132,-0.46366 1.092,-0.793 0.32066,-0.338 0.58932,-0.71933 0.806,-1.144 0.21666,-0.43333 0.36832,-0.87533 0.455,-1.326 m -1.209,-0.091 c -0.18201,0.91001 -0.48101,1.61634 -0.897,2.119 -0.40734,0.494 -0.85367,0.741 -1.339,0.741 -0.49401,0 -0.87101,-0.26433 -1.131,-0.793 -0.26001,-0.52866 -0.30334,-1.23066 -0.13,-2.106 0.15599,-0.77999 0.43766,-1.41266 0.845,-1.898 0.40733,-0.48532 0.86666,-0.72799 1.378,-0.728 0.46799,1e-5 0.82766,0.23401 1.079,0.702 0.25999,0.45934 0.32499,1.11367 0.195,1.963"
         style="font-family:Barmeno2;-inkscape-font-specification:Barmeno2 Bold Italic"
         id="path3239" />
      <path
         d="m 226.34801,389.41262 c 0.052,-0.27733 0.0823,-0.52432 0.091,-0.741 0.009,-0.21666 -0.0433,-0.43332 -0.156,-0.65 -0.11267,-0.21666 -0.32934,-0.39432 -0.65,-0.533 -0.312,-0.14732 -0.75834,-0.22099 -1.339,-0.221 -0.0953,10e-6 -0.221,0.004 -0.377,0.013 -0.14733,0.009 -0.32933,0.026 -0.546,0.052 -0.21667,0.026 -0.45067,0.0737 -0.702,0.143 -0.25133,0.0607 -0.48533,0.14301 -0.702,0.247 -0.22533,0.10401 -0.39,0.22534 -0.494,0.364 -0.0953,0.13001 -0.169,0.32501 -0.221,0.585 l -1.04,5.239 c -0.0173,0.0953 -0.013,0.16034 0.013,0.195 0.026,0.0347 0.0867,0.052 0.182,0.052 l 0.637,0 c 0.104,0 0.17767,-0.013 0.221,-0.039 0.0433,-0.0347 0.078,-0.10833 0.104,-0.221 l 0.962,-4.797 c 0.026,-0.12999 0.0607,-0.25132 0.104,-0.364 0.0433,-0.11266 0.12133,-0.22966 0.234,-0.351 0.11267,-0.12999 0.27733,-0.23399 0.494,-0.312 0.21667,-0.0867 0.48533,-0.12999 0.806,-0.13 0.35533,10e-6 0.62833,0.052 0.819,0.156 0.19066,0.0953 0.31633,0.22534 0.377,0.39 0.0693,0.15601 0.0953,0.31634 0.078,0.481 -0.009,0.15601 -0.0347,0.34234 -0.078,0.559 l -0.871,4.368 c -0.026,0.11267 -0.0217,0.18634 0.013,0.221 0.0347,0.026 0.10833,0.039 0.221,0.039 l 0.715,0 c 0.0607,-0.009 0.104,-0.0347 0.13,-0.078 0.0347,-0.052 0.0607,-0.11266 0.078,-0.182 l 0.897,-4.485"
         style="font-family:Barmeno2;-inkscape-font-specification:Barmeno2 Bold Italic"
         id="path3241" />
      <path
         d="m 234.16731,384.47262 c 0.026,-0.11265 0.0217,-0.18199 -0.013,-0.208 -0.0347,-0.0346 -0.0997,-0.052 -0.195,-0.052 l -0.663,0 c -0.10401,10e-6 -0.17767,0.0217 -0.221,0.065 -0.0347,0.0347 -0.0607,0.10835 -0.078,0.221 l -0.65,3.198 c -0.19067,-0.12999 -0.38567,-0.23399 -0.585,-0.312 -0.19067,-0.078 -0.43767,-0.11699 -0.741,-0.117 -0.48534,10e-6 -0.94034,0.10834 -1.365,0.325 -0.42467,0.20801 -0.806,0.49401 -1.144,0.858 -0.32934,0.35534 -0.60667,0.75401 -0.832,1.196 -0.21667,0.44201 -0.36833,0.89267 -0.455,1.352 -0.21667,1.05734 -0.10833,1.87634 0.325,2.457 0.442,0.572 1.131,0.858 2.067,0.858 0.19933,0 0.41166,-0.013 0.637,-0.039 0.234,-0.026 0.47233,-0.0693 0.715,-0.13 0.24266,-0.0693 0.47233,-0.156 0.689,-0.26 0.21666,-0.104 0.38999,-0.22966 0.52,-0.377 0.0953,-0.104 0.16466,-0.208 0.208,-0.312 0.0433,-0.11266 0.0823,-0.25133 0.117,-0.416 l 1.664,-8.307 m -2.769,8.008 0,0.013 c -0.026,0.12134 -0.0607,0.23834 -0.104,0.351 -0.0433,0.104 -0.11267,0.208 -0.208,0.312 -0.0953,0.104 -0.22967,0.19067 -0.403,0.26 -0.16467,0.0607 -0.38134,0.091 -0.65,0.091 -0.64134,0 -1.10934,-0.247 -1.404,-0.741 -0.29467,-0.50266 -0.35534,-1.19599 -0.182,-2.08 0.078,-0.38133 0.19933,-0.74099 0.364,-1.079 0.17333,-0.33799 0.377,-0.63266 0.611,-0.884 0.234,-0.25132 0.48966,-0.44199 0.767,-0.572 0.286,-0.13866 0.57633,-0.20799 0.871,-0.208 0.28599,10e-6 0.51133,0.0433 0.676,0.13 0.17333,0.0867 0.32933,0.20368 0.468,0.351 l -0.806,4.056"
         style="font-family:Barmeno2;-inkscape-font-specification:Barmeno2 Bold Italic"
         id="path3243" />
      <path
         d="m 236.08461,393.46862 c 0.0433,-0.24266 -1e-5,-0.44633 -0.13,-0.611 -0.12134,-0.16466 -0.29901,-0.247 -0.533,-0.247 -0.23401,0 -0.44634,0.0823 -0.637,0.247 -0.19067,0.16467 -0.30767,0.35534 -0.351,0.572 -0.0347,0.19934 0.004,0.38567 0.117,0.559 0.11266,0.16467 0.29466,0.247 0.546,0.247 0.21666,0 0.42033,-0.0693 0.611,-0.208 0.19066,-0.14733 0.31633,-0.33366 0.377,-0.559 m 1.495,-8.216 c 0.026,-0.12999 0.0217,-0.20799 -0.013,-0.234 -0.0347,-0.026 -0.10834,-0.039 -0.221,-0.039 l -0.806,0 c -0.10401,10e-6 -0.17767,0.013 -0.221,0.039 -0.0433,0.026 -0.078,0.10401 -0.104,0.234 l -0.819,5.759 c -0.009,0.11267 0.004,0.18201 0.039,0.208 0.0433,0.0173 0.16033,0.026 0.351,0.026 0.0953,1e-5 0.16033,-0.013 0.195,-0.039 0.0347,-0.026 0.065,-0.0867 0.091,-0.182 l 1.508,-5.772"
         style="font-family:Barmeno2;-inkscape-font-specification:Barmeno2 Bold Italic"
         id="path3245" />
    </g>
  </g>
</svg>
