<?xml version="1.0" encoding="UTF-8" standalone="no"?>
<!-- Created with Inkscape (http://www.inkscape.org/) -->

<svg
   xmlns:dc="http://purl.org/dc/elements/1.1/"
   xmlns:cc="http://creativecommons.org/ns#"
   xmlns:rdf="http://www.w3.org/1999/02/22-rdf-syntax-ns#"
   xmlns:svg="http://www.w3.org/2000/svg"
   xmlns="http://www.w3.org/2000/svg"
   xmlns:sodipodi="http://sodipodi.sourceforge.net/DTD/sodipodi-0.dtd"
   xmlns:inkscape="http://www.inkscape.org/namespaces/inkscape"
   width="581.31354"
   height="389.82697"
   id="svg2"
   version="1.1"
   inkscape:version="0.48.4 r9939"
   sodipodi:docname="shaing-is-caring-vector.svg">
  <defs
     id="defs4" />
  <sodipodi:namedview
     id="base"
     pagecolor="#ffffff"
     bordercolor="#666666"
     borderopacity="1.0"
     inkscape:pageopacity="0.0"
     inkscape:pageshadow="2"
     inkscape:zoom="0.49497475"
     inkscape:cx="321.47581"
     inkscape:cy="157.69429"
     inkscape:document-units="px"
     inkscape:current-layer="layer2"
     showgrid="false"
     fit-margin-top="40"
     fit-margin-left="40"
     fit-margin-right="40"
     fit-margin-bottom="40"
     inkscape:window-width="1280"
     inkscape:window-height="696"
     inkscape:window-x="0"
     inkscape:window-y="24"
     inkscape:window-maximized="1" />
  <metadata
     id="metadata7">
    <rdf:RDF>
      <cc:Work
         rdf:about="">
        <dc:format>image/svg+xml</dc:format>
        <dc:type
           rdf:resource="http://purl.org/dc/dcmitype/StillImage" />
        <dc:title></dc:title>
      </cc:Work>
    </rdf:RDF>
  </metadata>
  <g
     inkscape:groupmode="layer"
     id="layer2"
     inkscape:label="Kiht"
     transform="translate(-79.197998,-190.84586)">
    <path
       sodipodi:type="arc"
       style="fill:#000000;fill-opacity:1;fill-rule:nonzero;stroke:none"
       id="path3134"
       sodipodi:cx="236.12315"
       sodipodi:cy="336.92163"
       sodipodi:rx="106.82363"
       sodipodi:ry="92.681496"
       d="m 342.94678,336.92163 a 106.82363,92.681496 0 1 1 -213.64726,0 106.82363,92.681496 0 1 1 213.64726,0 z"
       transform="matrix(1.0567376,0,0,1.2234333,-17.437669,-67.198272)" />
    <path
       inkscape:connector-curvature="0"
       id="path32"
       clip-rule="evenodd"
       d="m 327.46956,388.90714 c -0.22159,1.52411 -1.22259,2.86736 -2.69686,3.79669 -0.0216,0.0151 -0.0451,0.0267 -0.0666,0.0414 -1.00381,0.90377 -2.3006,1.45072 -3.71854,1.45072 -0.24601,0 -0.48735,-0.0221 -0.72494,-0.0539 -0.01,0 -0.0129,0.003 -0.0196,0.003 -0.66106,0 -1.29958,-0.0881 -1.90994,-0.23927 -1.7025,-0.27908 -3.19178,-0.99059 -4.25851,-1.97932 -0.46481,-0.38804 -0.86955,-0.85577 -1.21322,-1.37559 -0.19532,-0.22483 -0.37092,-0.47106 -0.53712,-0.72715 -0.43196,-0.45898 -0.80476,-0.98666 -1.10712,-1.56995 -0.50331,-0.70756 -0.87798,-1.59469 -1.05827,-2.59611 -0.49582,-2.00646 -2.10811,-3.19739 -4.83411,-3.57364 l -47.95701,7.57823 29.75118,7.87755 c 3.76829,-0.48058 6.06046,-1.84478 6.8793,-4.0914 0.95592,-3.6829 4.15049,-6.39556 7.96012,-6.39556 4.56553,0 8.2653,3.88638 8.2653,8.68023 0,2.50526 -1.01697,4.75288 -2.63584,6.33431 -0.26575,0.48304 -0.68079,0.8888 -1.19256,1.17152 -0.0703,0.0897 -0.15214,0.17655 -0.24227,0.26101 -0.31551,0.45836 -0.76247,0.82822 -1.28834,1.08138 -0.0571,0.0434 -0.12113,0.0806 -0.18218,0.12037 -0.26575,0.30634 -0.56152,0.57696 -0.88924,0.79026 -1.16911,2.43857 -1.10338,4.87717 0.19061,7.31575 0.69863,0.90247 1.14656,2.28232 1.14656,3.83142 0,0.72265 -0.10144,1.40482 -0.27702,2.02307 -0.0949,0.61284 -0.26857,1.19034 -0.50896,1.71686 -0.10048,0.29718 -0.21691,0.57871 -0.35401,0.83939 -0.0122,0.0248 -0.0243,0.0493 -0.0365,0.0735 -0.0263,0.048 -0.0535,0.0951 -0.0798,0.14179 -0.30425,0.55216 -0.71177,1.06151 -1.21229,1.50624 -1.10429,1.30621 -2.62551,2.11423 -4.3073,2.11423 -0.52116,0 -1.02635,-0.0817 -1.509,-0.22959 -1.90907,-0.0935 -3.61058,-0.77094 -4.82472,-1.80952 -1.76913,-1.0853 -2.94479,-2.88813 -3.0218,-4.94716 l -0.015,0 0,-0.68221 c -0.0516,-0.87892 -0.12208,-1.69905 -0.21033,-2.46029 -0.01,0.0961 -0.0216,0.18674 -0.03,0.2852 -0.38968,-4.75111 -1.94378,-7.46818 -4.66132,-8.15095 0.01,-0.006 0.0177,-0.01 0.0272,-0.01 l -51.1234,-13.53688 -57.02882,9.01206 c -1.97555,0.90758 -3.17871,2.31092 -3.60041,4.21492 -0.009,-0.0191 -0.0109,-0.0365 -0.0155,-0.0553 -0.0629,0.60835 -0.1792,1.1925 -0.33742,1.74912 -0.0542,1.09622 -0.31552,2.11819 -0.73581,3.00711 -0.22386,1.74398 -0.95941,3.27585 -2.0191,4.3669 -0.74793,0.92058 -1.70969,1.61366 -2.80075,1.97426 -0.41427,0.1756 -0.84587,0.31861 -1.30223,0.39828 -0.25382,0.0885 -0.51403,0.15751 -0.78567,0.18343 -0.20801,0.0797 -0.42642,0.12526 -0.65282,0.12526 -0.0533,0 -0.10545,-0.009 -0.15767,-0.0109 -0.21202,0.0735 -0.43213,0.11677 -0.65939,0.11677 -0.0257,0 -0.0504,-0.01 -0.0758,-0.01 -0.25552,0.071 -0.51854,0.11166 -0.78908,0.11166 -0.10722,0 -0.21268,-0.0109 -0.31756,-0.0222 -0.13335,0.0148 -0.26761,0.0222 -0.40333,0.0222 -3.10496,0 -5.62221,-3.86245 -5.62221,-8.62711 0,-0.51267 0.0342,-1.01205 0.09,-1.49963 -0.0303,0.0249 -0.0606,0.0457 -0.0908,0.0706 0.0352,-0.0517 0.0648,-0.10402 0.0992,-0.15625 0.14837,-1.22446 0.47423,-2.34536 0.92249,-3.32631 -0.0202,0.0147 -0.0399,0.027 -0.0601,0.0423 0.0466,-0.0624 0.0869,-0.125 0.13137,-0.18714 0.0872,-0.18311 0.17053,-0.37075 0.26678,-0.54247 0.168,-0.58561 0.44256,-1.11487 0.78737,-1.58171 0.44688,-1.60662 0.10086,-3.21371 -1.02795,-4.82071 -0.0482,-0.0614 -0.10028,-0.11948 -0.14583,-0.18312 -0.49928,-0.36209 -0.9395,-0.83099 -1.29811,-1.38523 -0.40743,-0.37303 -0.74164,-0.77937 -0.96286,-1.21877 -1.51091,-1.60218 -2.45962,-3.81447 -2.45962,-6.27654 0,-4.8814 3.67884,-8.83857 8.21715,-8.83857 4.07912,0 7.45456,3.20014 8.09761,7.39146 0.8868,2.83803 3.07211,4.48616 6.55909,4.94079 -0.27513,0.0362 -0.54013,0.0815 -0.79921,0.13246 l 34.85742,-5.5084 -50.97135,-13.49612 c -0.18753,0.0205 -0.36737,0.0467 -0.54803,0.072 -2.11467,0.5033 -3.50564,1.27991 -4.17471,2.32874 -0.0193,0.0281 -0.0361,0.0573 -0.0558,0.0852 -0.0869,0.14662 -0.16217,0.29778 -0.22151,0.45502 -0.009,-0.011 -0.0102,-0.0212 -0.0152,-0.0315 -0.11786,0.22333 -0.25269,0.43328 -0.39703,0.6343 -0.15868,0.2658 -0.34021,0.51256 -0.54274,0.73648 -0.10686,0.17318 -0.2095,0.35128 -0.32818,0.50962 -0.16772,0.3138 -0.3483,0.60105 -0.54248,0.85155 -0.13665,0.22951 -0.27861,0.44745 -0.43129,0.63871 -0.0387,0.068 -0.0743,0.13945 -0.11439,0.20514 -1.20175,2.45707 -3.98513,4.18267 -7.23881,4.18267 -4.35246,0 -7.88096,-3.08075 -7.88096,-6.88069 0,-0.3796 0.0454,-0.74798 0.11698,-1.1089 0.0579,-0.76971 0.2423,-1.49144 0.52494,-2.13412 0.081,-0.51746 0.23652,-0.97732 0.45117,-1.32732 0.15298,-0.58838 0.37542,-1.10427 0.65168,-1.50442 0.22156,-0.48848 0.4875,-0.91183 0.7906,-1.24404 0.27426,-0.49995 0.59003,-0.94113 0.94239,-1.30163 0.40338,-0.54285 0.88219,-1.01893 1.43047,-1.3949 0.21497,-0.23984 0.43996,-0.47163 0.68542,-0.68465 1.22158,-1.75875 1.34347,-3.5173 0.34399,-5.27573 -1.35409,-1.60949 -2.18932,-3.76739 -2.18932,-6.14745 0,-4.96921 3.61433,-8.99769 8.07284,-8.99769 4.45879,0 8.07319,4.02848 8.07319,8.99769 0,0.0507 -0.01,0.0998 -0.01,0.15056 0.47853,4.39586 2.0081,7.19684 4.58901,8.40223 l 73.36789,19.42601 72.03176,-11.38277 c 2.21424,-1.12759 3.51102,-3.5885 3.88663,-7.38703 0.009,0.0372 0.01,0.0721 0.0131,0.10867 0.0703,-0.37962 0.15774,-0.74523 0.26104,-1.09377 0.40002,-2.13293 1.21322,-3.85156 2.24239,-4.75796 0.25919,-0.31047 0.56435,-0.59417 0.90709,-0.84792 0.52775,-0.54461 1.10996,-0.9483 1.73531,-1.16289 1.07051,-0.65712 2.29031,-1.03188 3.58711,-1.03188 0.0167,0 0.0318,0.008 0.048,0.008 0.0168,0 0.0319,-0.008 0.0489,-0.008 4.19275,0 7.59203,3.90986 7.59203,8.73302 0,0.0266 -0.009,0.0526 -0.009,0.0791 0,0.0267 0.009,0.0526 0.009,0.0796 0,2.5986 -0.96625,4.93126 -2.50436,6.55401 -1.43581,2.30364 -1.23108,4.60738 0.61315,6.91107 0.78973,0.55915 1.47805,1.44285 1.99638,2.56653 0.2648,0.22205 0.48361,0.57843 0.63479,1.01862 0.16246,0.24229 0.28078,0.50536 0.34836,0.78328 0.27047,0.51207 0.47236,1.15295 0.57094,1.87952 0.13335,0.37841 0.2188,0.79173 0.24886,1.2268 0.13051,0.51689 0.20656,1.05306 0.20656,1.607 0,0.60559 -0.091,1.19005 -0.24602,1.7507 z"
       style="fill:#ffffff;fill-opacity:1"
       sodipodi:nodetypes="cccscsccccccccccsscccccccsccccccscccccccccccccccccccscscscssccccccccccccssccccccccccccccccsscccccccccsssccccccccccsssssscccccccscc" />
    <path
       inkscape:connector-curvature="0"
       id="path32-8"
       clip-rule="evenodd"
       d="m 290.30776,361.88088 -48.75548,0 -14.53508,0 -48.27942,0 c -5.25742,0 -9.55865,-4.58901 -9.55865,-10.19795 l 0,-16.13444 c 0.13735,-4.50298 0.68933,-7.07775 1.655,-7.72584 -0.0103,-0.01 -0.0173,-0.0148 -0.0259,-0.0206 l 0,-7.07175 0,-0.37076 0,-17.88934 0,-0.238 0,-16.08973 0,-1.85175 0,-0.01 c 0.74925,-4.34179 3.30627,-6.83966 7.68138,-7.48184 -0.002,-0.002 -0.005,-0.002 -0.009,-0.002 l 73.03771,0 0,0 38.78344,0 c 1.1482,0 2.24892,0.21438 3.2718,0.59988 2.10438,1.0562 3.70033,3.03876 4.78689,5.94968 l 0,44.52819 c -0.0283,0.0237 -0.0545,0.0512 -0.0828,0.0717 0.96426,0.68739 1.51612,3.42574 1.65459,8.2139 0,-3.8e-4 0,-0.004 0,-0.005 l 0,15.7923 c 0,5.45917 -4.33408,9.92604 -9.6304,9.92604 z m -23.78292,-3.36102 c 2.17109,0 3.9308,-1.80105 3.9308,-4.02238 0,-2.22165 -1.75971,-4.02237 -3.9308,-4.02237 -2.17111,0 -3.93182,1.80071 -3.93182,4.02237 0,2.22133 1.76071,4.02238 3.93182,4.02238 z m -64.03528,0 c 2.17118,0 3.93101,-1.80105 3.93101,-4.02238 0,-2.22165 -1.75983,-4.02237 -3.93101,-4.02237 -2.17109,0 -3.93109,1.80071 -3.93109,4.02237 0,2.22133 1.76,4.02238 3.93109,4.02238 z m 0.98276,-52.92639 c -5.91331,0 -10.70708,4.90431 -10.70708,10.95528 0,6.05096 4.79377,10.95625 10.70708,10.95625 5.91329,0 10.70706,-4.90529 10.70706,-10.95625 0,-6.05097 -4.79377,-10.95528 -10.70706,-10.95528 z m 9.05166,46.73401 c 0,2.95209 2.33917,5.34546 5.22426,5.34546 2.88527,0 5.22414,-2.39337 5.22414,-5.34546 0,-2.95214 -2.33887,-5.34547 -5.22414,-5.34547 -2.88509,0 -5.22426,2.39333 -5.22426,5.34547 z m 35.58603,-46.73401 -27.30992,0 0,11.7499 27.30992,0 z m 3.25866,41.38854 c -2.88468,0 -5.22355,2.39333 -5.22355,5.34547 0,2.95209 2.33887,5.34546 5.22355,5.34546 2.88568,0 5.22455,-2.39337 5.22455,-5.34546 0,-2.95214 -2.33887,-5.34547 -5.22455,-5.34547 z m 14.1727,-41.38854 c -5.91287,0 -10.70685,4.90431 -10.70685,10.95528 0,6.05096 4.79398,10.95625 10.70685,10.95625 5.91389,0 10.70687,-4.90529 10.70687,-10.95625 0,-6.05097 -4.79298,-10.95528 -10.70687,-10.95528 z"
       style="fill:#ffffff;fill-opacity:1"
       sodipodi:nodetypes="cccssccccccccccccccsccccccsccsssssssssssssssssssscccccssssssssss" />
    <g
       transform="matrix(0.55661664,0,0,0.55661664,316.3234,217.32195)"
       id="layer1-9"
       style="fill:#00ffff;fill-opacity:0.59728507;stroke:none">
      <path
         style="fill:#ff0000;fill-opacity:1;fill-rule:evenodd;stroke:none"
         inkscape:connector-curvature="0"
         id="path2361"
         d="M 185.74733,30.781756 C 20.237081,79.322716 62.538186,337.91057 319.81326,439.43494 596.96142,324.47206 604.58478,50.077309 426.0179,24.448035 389.74785,22.457192 347.83732,39.919436 315.87051,87.55879 282.82223,36.041185 245.02751,15.748852 185.74733,30.781756 z"
         sodipodi:nodetypes="ccccc" />
    </g>
    <flowRoot
       xml:space="preserve"
       id="flowRoot3913"
       style="font-size:56px;font-style:normal;font-variant:normal;font-weight:normal;font-stretch:normal;line-height:125%;letter-spacing:0px;word-spacing:0px;fill:#000000;fill-opacity:1;stroke:none;font-family:Cooper Black;-inkscape-font-specification:Cooper Black"
       transform="translate(-2.1428571,-0.71428572)"><flowRegion
         id="flowRegion3915"><rect
           id="rect3917"
           width="557.60425"
           height="157.5838"
           x="125.25892"
           y="474.55493"
           style="font-size:56px;fill:#000000;font-family:Cooper Black;-inkscape-font-specification:Cooper Black" /></flowRegion><flowPara
         id="flowPara3919">Sharing is Caring</flowPara></flowRoot>  </g>
</svg>
