<?xml version="1.0" encoding="UTF-8" standalone="no"?>
<!-- Created with Inkscape (http://www.inkscape.org/) -->

<svg
   xmlns:osb="http://www.openswatchbook.org/uri/2009/osb"
   xmlns:dc="http://purl.org/dc/elements/1.1/"
   xmlns:cc="http://creativecommons.org/ns#"
   xmlns:rdf="http://www.w3.org/1999/02/22-rdf-syntax-ns#"
   xmlns:svg="http://www.w3.org/2000/svg"
   xmlns="http://www.w3.org/2000/svg"
   xmlns:sodipodi="http://sodipodi.sourceforge.net/DTD/sodipodi-0.dtd"
   xmlns:inkscape="http://www.inkscape.org/namespaces/inkscape"
   version="1.1"
   width="463"
   height="463"
   viewBox="-0.327 -0.089 463 463"
   id="svg2"
   xml:space="preserve"
   inkscape:version="0.48.2 r9819"
   sodipodi:docname="pirate-party-flag-ensv.svg"
   inkscape:export-filename="/home/mp/Pildid/pp-eesti-lained.png"
   inkscape:export-xdpi="17.74"
   inkscape:export-ydpi="17.74"><metadata
   id="metadata9"><rdf:RDF><cc:Work
       rdf:about=""><dc:format>image/svg+xml</dc:format><dc:type
         rdf:resource="http://purl.org/dc/dcmitype/StillImage" /><dc:title></dc:title></cc:Work></rdf:RDF></metadata><sodipodi:namedview
   pagecolor="#917eff"
   bordercolor="#666666"
   borderopacity="1"
   objecttolerance="10"
   gridtolerance="10"
   guidetolerance="10"
   inkscape:pageopacity="0"
   inkscape:pageshadow="2"
   inkscape:window-width="1280"
   inkscape:window-height="1000"
   id="namedview7"
   showgrid="false"
   inkscape:zoom="1.4417037"
   inkscape:cx="210.79972"
   inkscape:cy="148.26514"
   inkscape:window-x="0"
   inkscape:window-y="24"
   inkscape:window-maximized="1"
   inkscape:current-layer="svg2" />
	<defs
   id="defs4"><linearGradient
     id="linearGradient5205"
     osb:paint="solid"><stop
       style="stop-color:#ffffff;stop-opacity:1;"
       offset="0"
       id="stop5207" /></linearGradient></defs>
	<path
   sodipodi:type="arc"
   style="fill:#ffffff;fill-opacity:1"
   id="path3767"
   sodipodi:cx="237.38559"
   sodipodi:cy="297.22244"
   sodipodi:rx="266.81357"
   sodipodi:ry="344.30719"
   d="m 504.19916,297.22244 a 266.81357,344.30719 0 1 1 -533.627139,0 266.81357,344.30719 0 1 1 533.627139,0 z"
   transform="matrix(0.83455883,0,0,0.64672363,32.079824,36.247406)" /><path
   id="_14378696"
   class="fil3"
   d="m 10.157004,260.05796 c 20.90759,2.05784 42.328468,-4.73733 64.321845,-20.3849 36.071361,28.80238 73.808901,29.18589 113.042641,1.14876 36.07,28.8024 73.80818,29.1859 113.04258,1.14879 36.07104,28.80239 73.80924,29.18588 113.0423,1.14876 13.21237,10.54996 26.64842,17.28706 40.2997,20.2112 C 403.99119,502.39783 72.702966,544.49816 10.157004,260.05796 z"
   style="fill:#1791ff;fill-opacity:1;fill-rule:evenodd;stroke:none"
   inkscape:connector-curvature="0"
   sodipodi:nodetypes="ccccccc"
   inkscape:export-filename="/home/mp/Pildid/piraadid.png"
   inkscape:export-xdpi="90"
   inkscape:export-ydpi="90" /><path
   inkscape:connector-curvature="0"
   id="_14378784"
   class="fil3"
   d="m 458.25028,250.3235 c -15.09893,-2.36213 -29.93732,-9.3588 -44.50382,-20.98989 -39.2327,28.0368 -76.97125,27.65329 -113.04229,-1.14876 -39.23404,28.03678 -76.97259,27.65327 -113.04259,-1.14876 -39.23374,28.03677 -76.97127,27.65327 -113.04263,-1.14878 -20.382956,14.50174 -40.274353,21.39999 -59.72119,20.69425 -1.228303,-4.98997 -8.0527582,5.96726 -1.452564,6.83007 19.886283,1.09159 40.237329,-5.78575 61.103704,-20.6315 36.07136,28.80241 73.8089,29.18589 113.04263,1.14876 36.07001,28.80238 73.80823,29.18589 113.04262,1.14878 36.07103,28.80238 73.80924,29.1859 113.04229,1.14876 14.45236,11.54008 29.17236,18.51803 44.14892,20.93374 -9.16402,-30.19899 5.29384,-2.56073 0.42492,-6.83667 z"
   style="fill:#1791ff;fill-opacity:1;fill-rule:evenodd;stroke:none"
   sodipodi:nodetypes="ccccccccccccc" /><path
   d="M 231.17299,451.91098 C 109.39398,451.91098 10.673,353.19001 10.673,231.411 10.673,162.31563 42.454185,100.64262 92.196041,60.213091 130.1223,29.387122 178.48996,10.910999 231.17299,10.910999 c 121.77901,0 220.49999,98.722051 220.49999,220.500001 0,121.78007 -98.72098,220.49998 -220.49999,220.49998 z"
   id="path2827"
   style="fill:#ffffff;stroke:#000000;stroke-width:22;stroke-miterlimit:4;stroke-opacity:1;stroke-dasharray:none;fill-opacity:0"
   inkscape:connector-curvature="0"
   sodipodi:nodetypes="ssssss" /><path
   d="m 120.805,110.043 c 24.267,-7.07 126.586,6.86 105.678,105.837 -7.609,36.019 -49.357,53.566 -69.592,68.72 -47.901,35.873 -6.648,121.071 -6.648,121.071 0,0 -22.318,-66.267 27.382,-97.619 C 223.352,279.206 380.998,292.759 380.456,203.786 379.417,33.321 113.795,94.816 120.805,110.043 z"
   id="path8" /><rect
   width="20.208"
   height="250.63"
   x="141.205"
   y="61.290001"
   id="rect10" />
<path
   sodipodi:type="arc"
   style="fill:#ffffff;fill-opacity:0"
   id="path3763"
   sodipodi:cx="292.31781"
   sodipodi:cy="274.66101"
   sodipodi:rx="380.60168"
   sodipodi:ry="333.51694"
   d="m 672.91949,274.66101 a 380.60168,333.51694 0 1 1 -761.203365,0 380.60168,333.51694 0 1 1 761.203365,0 z"
   transform="translate(-0.327,-0.089)" /></svg>