<?xml version="1.0" encoding="UTF-8" standalone="no"?>
<!-- Created with Inkscape (http://www.inkscape.org/) -->

<svg
   xmlns:dc="http://purl.org/dc/elements/1.1/"
   xmlns:cc="http://creativecommons.org/ns#"
   xmlns:rdf="http://www.w3.org/1999/02/22-rdf-syntax-ns#"
   xmlns:svg="http://www.w3.org/2000/svg"
   xmlns="http://www.w3.org/2000/svg"
   xmlns:sodipodi="http://sodipodi.sourceforge.net/DTD/sodipodi-0.dtd"
   xmlns:inkscape="http://www.inkscape.org/namespaces/inkscape"
   width="394.83325"
   height="95.446365"
   id="svg3078"
   version="1.1"
   inkscape:version="0.48.3.1 r9886"
   inkscape:export-filename="/home/mp/Pildid/piraadipartei-logo-307px.png"
   inkscape:export-xdpi="70.160004"
   inkscape:export-ydpi="70.160004"
   sodipodi:docname="piraadipartei-logo2.svg">
  <defs
     id="defs3080" />
  <sodipodi:namedview
     id="base"
     pagecolor="#ffff74"
     bordercolor="#666666"
     borderopacity="1.0"
     inkscape:pageopacity="0"
     inkscape:pageshadow="2"
     inkscape:zoom="1.1641622"
     inkscape:cx="205.71431"
     inkscape:cy="64.880035"
     inkscape:document-units="px"
     inkscape:current-layer="layer1"
     showgrid="false"
     fit-margin-top="5"
     fit-margin-left="5"
     fit-margin-right="5"
     fit-margin-bottom="5"
     showborder="true"
     inkscape:showpageshadow="false"
     inkscape:window-width="1280"
     inkscape:window-height="740"
     inkscape:window-x="0"
     inkscape:window-y="0"
     inkscape:window-maximized="1" />
  <metadata
     id="metadata3083">
    <rdf:RDF>
      <cc:Work
         rdf:about="">
        <dc:format>image/svg+xml</dc:format>
        <dc:type
           rdf:resource="http://purl.org/dc/dcmitype/StillImage" />
        <dc:title></dc:title>
      </cc:Work>
    </rdf:RDF>
  </metadata>
  <g
     inkscape:label="Layer 1"
     inkscape:groupmode="layer"
     id="layer1"
     transform="translate(-9.0306823,-579.86303)">
    <g
       id="g3004"
       transform="matrix(0.98,0,0,0.98,100.599,5.2746247)">
      <path
         sodipodi:open="true"
         sodipodi:end="6.0558246"
         sodipodi:start="0"
         transform="matrix(0.17873641,0,0,0.16855238,-50.59524,597.17701)"
         d="m 268.77543,220.70975 c 0,134.89672 -104.52444,244.25212 -233.46187,244.25212 -128.937429,0 -233.46187,-109.3554 -233.46187,-244.25212 0,-134.896724 104.524441,-244.252124 233.46187,-244.252124 108.66386,0 202.96007,78.435605 227.45366,189.195994"
         sodipodi:ry="244.25212"
         sodipodi:rx="233.46187"
         sodipodi:cy="220.70975"
         sodipodi:cx="35.31356"
         id="path3756"
         style="fill:#ffffff;fill-opacity:1"
         sodipodi:type="arc" />
      <path
         sodipodi:open="true"
         sodipodi:end="3.156249"
         sodipodi:start="0"
         transform="matrix(0.34174261,0,0,-0.23971987,-33.891405,624.81659)"
         d="m 92.785294,-39.237289 c 0,95.348689 -55.155918,172.644069 -123.194191,172.644069 -68.038273,0 -123.194193,-77.29538 -123.194193,-172.644069 0,-0.843448 0.004,-1.686884 0.0132,-2.530241"
         sodipodi:ry="172.64407"
         sodipodi:rx="123.19419"
         sodipodi:cy="-39.237289"
         sodipodi:cx="-30.408897"
         id="path2986"
         style="fill:#1791ff;fill-opacity:1"
         sodipodi:type="arc" />
      <path
         style="fill:none;stroke:#000000;stroke-width:4.17796326;stroke-miterlimit:4;stroke-opacity:1;stroke-dasharray:none"
         id="path2827-9"
         d="m -44.655997,676.81163 c -23.126737,0 -41.874584,-18.74786 -41.874584,-41.8746 0,-23.12655 18.747847,-41.87461 41.874584,-41.87461 23.12674,0 41.8745902,18.74806 41.8745902,41.87461 0,23.12692 -18.7478502,41.8746 -41.8745902,41.8746 z"
         inkscape:connector-curvature="0" />
      <path
         id="path8-1"
         d="m -65.615695,611.88834 c 4.608482,-1.34265 24.03962,1.30275 20.069036,20.09922 -1.445005,6.84029 -9.373261,10.17259 -13.216038,13.05047 -9.096756,6.81254 -1.262506,22.99227 -1.262506,22.99227 0,0 -4.238352,-12.5846 5.200046,-18.53858 8.683896,-5.47808 38.622044,-2.90426 38.519117,-19.80089 -0.197319,-32.37257 -50.640908,-20.69421 -49.309655,-17.80249 z"
         inkscape:connector-curvature="0" />
      <rect
         id="rect10-9"
         y="602.6297"
         x="-61.741585"
         height="47.596497"
         width="3.8376498" />
    </g>
    <text
       xml:space="preserve"
       style="font-size:48px;font-style:normal;font-variant:normal;font-weight:normal;font-stretch:normal;line-height:125%;letter-spacing:0px;word-spacing:0px;fill:#000000;fill-opacity:1;stroke:none;font-family:Ubuntu;-inkscape-font-specification:Ubuntu"
       x="113.84218"
       y="637.42993"
       id="text3004-0"
       sodipodi:linespacing="125%"><tspan
         sodipodi:role="line"
         x="113.84218"
         y="637.42993"
         id="tspan3839-4"><tspan
   style="font-size:48px;font-weight:bold;letter-spacing:0px;fill:#1791ff;fill-opacity:1"
   id="tspan3008-4">piraadi</tspan>partei</tspan></text>
  </g>
</svg>
