<?xml version="1.0" encoding="UTF-8" standalone="no"?>
<!-- Created with Inkscape (http://www.inkscape.org/) -->
<svg xmlns:dc="http://purl.org/dc/elements/1.1/" xmlns:cc="http://creativecommons.org/ns#" xmlns:rdf="http://www.w3.org/1999/02/22-rdf-syntax-ns#" xmlns:svg="http://www.w3.org/2000/svg" xmlns="http://www.w3.org/2000/svg" xmlns:sodipodi="http://sodipodi.sourceforge.net/DTD/sodipodi-0.dtd" xmlns:inkscape="http://www.inkscape.org/namespaces/inkscape" version="1.1" width="463" height="463" viewBox="-0.327 -0.089 463 463" id="svg2" xml:space="preserve" inkscape:version="0.48.3.1 r9886" sodipodi:docname="pirate-party-flag.svg"><metadata id="metadata9"><rdf:RDF><cc:Work rdf:about=""><dc:format>image/svg+xml</dc:format><dc:type rdf:resource="http://purl.org/dc/dcmitype/StillImage"/><dc:title/></cc:Work></rdf:RDF></metadata><sodipodi:namedview pagecolor="#ffffff" bordercolor="#666666" borderopacity="1" objecttolerance="10" gridtolerance="10" guidetolerance="10" inkscape:pageopacity="0" inkscape:pageshadow="2" inkscape:window-width="1125" inkscape:window-height="874" id="namedview7" showgrid="false" inkscape:zoom="1.0194384" inkscape:cx="235.42373" inkscape:cy="231.5" inkscape:window-x="0" inkscape:window-y="24" inkscape:window-maximized="0" inkscape:current-layer="svg2"/>
	<defs id="defs4"/>
	<path sodipodi:type="arc" style="fill:#ffffff;fill-opacity:1" id="path3756" sodipodi:cx="35.31356" sodipodi:cy="220.70975" sodipodi:rx="233.46187" sodipodi:ry="244.25212" d="m 268.77543,220.70975 a 233.46187,244.25212 0 1 1 -6.00821,-55.05613" transform="matrix(0.94117647,0,0,0.8875502,199.89857,32.577224)" sodipodi:start="0" sodipodi:end="6.0558246" sodipodi:open="true"/><path sodipodi:type="arc" style="fill:#1791ff;fill-opacity:1" id="path2986" sodipodi:cx="-30.408897" sodipodi:cy="-39.237289" sodipodi:rx="123.19419" sodipodi:ry="172.64407" d="M 92.785294,-39.237289 A 123.19419,172.64407 0 1 1 -153.58986,-41.76753" transform="matrix(1.7995222,0,0,-1.2622986,287.85635,178.11954)" sodipodi:start="0" sodipodi:end="3.156249" sodipodi:open="true"/><path d="M 231.17299,451.91098 C 109.39398,451.91098 10.673,353.19001 10.673,231.411 c 0,-121.77795 98.72098,-220.500001 220.49999,-220.500001 121.77901,0 220.49999,98.722051 220.49999,220.500001 0,121.78007 -98.72098,220.49998 -220.49999,220.49998 z" id="path2827" style="fill:none;stroke:#000000;stroke-width:22;stroke-miterlimit:4;stroke-opacity:1;stroke-dasharray:none"/><path d="m 120.805,110.043 c 24.267,-7.07 126.586,6.86 105.678,105.837 -7.609,36.019 -49.357,53.566 -69.592,68.72 -47.901,35.873 -6.648,121.071 -6.648,121.071 0,0 -22.318,-66.267 27.382,-97.619 C 223.352,279.206 380.998,292.759 380.456,203.786 379.417,33.321 113.795,94.816 120.805,110.043 z" id="path8"/><rect width="20.208" height="250.63" x="141.205" y="61.290001" id="rect10"/>
</svg>